<svg width="26" height="26" viewBox="0 0 26 26" fill="none" xmlns="http://www.w3.org/2000/svg">
<path d="M21.6179 4.38211C19.3323 2.09651 16.2324 0.812469 13 0.812469C9.76769 0.81247 6.66775 2.09651 4.38214 4.38211C2.09654 6.66772 0.8125 9.76766 0.8125 13C0.8125 16.2323 2.09654 19.3323 4.38214 21.6179C6.66775 23.9035 9.76769 25.1875 13 25.1875C16.2324 25.1875 19.3323 23.9035 21.6179 21.6179C23.9035 19.3323 25.1875 16.2323 25.1875 13C25.1875 9.76766 23.9035 6.66772 21.6179 4.38211ZM13 23.5625C7.17587 23.5625 2.43753 18.8241 2.43753 13C2.43753 7.17584 7.17587 2.4375 13 2.4375C18.8242 2.4375 23.5625 7.17584 23.5625 13C23.5625 18.8241 18.8242 23.5625 13 23.5625Z" fill="#435055"/>
<path d="M13 7.71875C11.9555 7.71875 10.9344 8.02849 10.0659 8.6088C9.1974 9.18911 8.52049 10.0139 8.12076 10.9789C7.72104 11.944 7.61645 13.0058 7.82023 14.0303C8.02401 15.0548 8.527 15.9958 9.26559 16.7344C10.0042 17.473 10.9452 17.976 11.9697 18.1798C12.9941 18.3835 14.056 18.2789 15.021 17.8792C15.9861 17.4795 16.8109 16.8026 17.3912 15.9341C17.9715 15.0656 18.2813 14.0445 18.2813 13C18.2797 11.5998 17.7227 10.2574 16.7327 9.26734C15.7426 8.27726 14.4002 7.72034 13 7.71875ZM13 16.6562C12.2769 16.6562 11.57 16.4418 10.9687 16.04C10.3674 15.6383 9.8988 15.0673 9.62207 14.3992C9.34533 13.7311 9.27293 12.9959 9.41401 12.2867C9.55508 11.5775 9.90331 10.926 10.4146 10.4146C10.926 9.9033 11.5775 9.55508 12.2867 9.414C12.9959 9.27292 13.7311 9.34533 14.3992 9.62206C15.0673 9.89879 15.6383 10.3674 16.0401 10.9687C16.4418 11.57 16.6563 12.2769 16.6563 13C16.6552 13.9694 16.2696 14.8987 15.5842 15.5841C14.8987 16.2696 13.9694 16.6551 13 16.6562Z" fill="#435055"/>
<path d="M12.1875 12.1875H13.8125V13.8125H12.1875V12.1875ZM13 5.68751V4.06251C11.588 4.05829 10.1956 4.39223 8.9391 5.03639C7.72604 5.6586 6.66985 6.54776 5.84998 7.637L7.14926 8.61297C7.82745 7.70143 8.71016 6.96184 9.72635 6.45373C10.7425 5.94561 11.8638 5.68317 13 5.68751Z" fill="#435055"/>
</svg>
