<svg width="27" height="19" viewBox="0 0 27 19" fill="none" xmlns="http://www.w3.org/2000/svg">
<path d="M9.69579 18.6133L0.424677 9.35112C0.279054 9.18107 0.202959 8.96234 0.2116 8.73863C0.220241 8.51491 0.312981 8.3027 0.471288 8.14439C0.629594 7.98609 0.841807 7.89335 1.06552 7.88471C1.28923 7.87607 1.50796 7.95216 1.67801 8.09778L9.67801 16.0978L25.3136 0.480006C25.4836 0.334382 25.7023 0.258288 25.9261 0.266929C26.1498 0.27557 26.362 0.36831 26.5203 0.526616C26.6786 0.684922 26.7713 0.897135 26.78 1.12085C26.7886 1.34456 26.7125 1.56329 26.5669 1.73334L9.69579 18.6133Z" fill="#676767"/>
</svg>
