<svg width="20" height="20" viewBox="0 0 21 20" fill="none" xmlns="http://www.w3.org/2000/svg">
<path fill-rule="evenodd" clip-rule="evenodd" d="M9.73627 16.2375L8.14877 14.65L8.98627 13.775L11.6488 16.4375V17.3125L8.98627 19.975L8.09877 19.0875L9.68627 17.5H7.37377C6.96292 17.5016 6.55582 17.4219 6.17593 17.2655C5.79604 17.109 5.45089 16.8789 5.16037 16.5884C4.86986 16.2979 4.63974 15.9527 4.48328 15.5728C4.32682 15.1929 4.24712 14.7858 4.24877 14.375V7.43747C3.64987 7.30997 3.09941 7.01523 2.66127 6.58747C2.2261 6.14779 1.93003 5.58971 1.81 4.98285C1.68996 4.37599 1.75126 3.74722 1.98627 3.17498C2.22345 2.60467 2.62432 2.11743 3.13825 1.77482C3.65217 1.4322 4.25611 1.24956 4.87377 1.24998C5.30247 1.24076 5.72832 1.32167 6.12377 1.48748C6.50259 1.64331 6.84677 1.87269 7.13641 2.16233C7.42606 2.45198 7.65543 2.79616 7.81127 3.17498C7.97752 3.57122 8.05752 3.99748 8.04877 4.42497C8.04892 5.14538 7.80015 5.84372 7.34459 6.40179C6.88902 6.95986 6.25462 7.34339 5.54877 7.48747V14.3625C5.54877 14.8598 5.74631 15.3367 6.09794 15.6883C6.44957 16.0399 6.92649 16.2375 7.42377 16.2375H9.73627ZM3.88627 5.92497C4.24692 6.16525 4.67966 6.27318 5.1109 6.23041C5.54214 6.18765 5.94526 5.99682 6.25169 5.69039C6.55812 5.38396 6.74894 4.98085 6.79171 4.54961C6.83447 4.11836 6.72654 3.68562 6.48627 3.32498C6.2766 3.01434 5.98134 2.77119 5.63627 2.62497C5.29567 2.48624 4.92162 2.45144 4.56127 2.52498C4.19628 2.59556 3.86077 2.77375 3.5979 3.03661C3.33504 3.29948 3.15685 3.63499 3.08627 3.99998C3.01273 4.36032 3.04753 4.73437 3.18627 5.07498C3.33252 5.42123 3.57502 5.71622 3.88627 5.92497ZM16.7988 13.8C17.3988 13.9225 17.9513 14.2187 18.3863 14.65C18.8959 15.1628 19.2129 15.8358 19.2835 16.5553C19.3541 17.2748 19.174 17.9967 18.7738 18.5987C18.5167 18.982 18.1779 19.3036 17.7817 19.5404C17.3855 19.7772 16.9418 19.9233 16.4825 19.9682C16.0232 20.0131 15.5596 19.9557 15.125 19.8001C14.6905 19.6445 14.2959 19.3946 13.9694 19.0684C13.643 18.7421 13.3928 18.3476 13.237 17.9131C13.0812 17.4787 13.0235 17.0152 13.0681 16.5558C13.1128 16.0964 13.2586 15.6526 13.4952 15.2563C13.7317 14.86 14.0531 14.521 14.4363 14.2637C14.7725 14.0362 15.15 13.8787 15.5488 13.8012V6.86247C15.5488 6.36519 15.3512 5.88828 14.9996 5.53665C14.648 5.18502 14.171 4.98748 13.6738 4.98748H11.3613L12.9488 6.57498L12.0613 7.46247L9.39877 4.79997V3.92498L12.0613 1.26248L12.9488 2.14998L11.3613 3.73748H13.6738C14.0846 3.73582 14.4917 3.81552 14.8716 3.97198C15.2515 4.12844 15.5967 4.35857 15.8872 4.64908C16.1777 4.93959 16.4078 5.28475 16.5643 5.66464C16.7207 6.04453 16.8004 6.45163 16.7988 6.86247V13.8ZM16.36 18.7287C16.6816 18.6965 16.9893 18.5816 17.2534 18.3954C17.5175 18.2092 17.7289 17.9579 17.8673 17.6658C18.0056 17.3738 18.0661 17.051 18.043 16.7286C18.0198 16.4063 17.9137 16.0955 17.735 15.8262C17.5253 15.5156 17.2301 15.2724 16.885 15.1262C16.5448 14.9877 16.1712 14.9529 15.8113 15.0262C15.4463 15.0968 15.1108 15.275 14.8479 15.5379C14.585 15.8007 14.4068 16.1362 14.3363 16.5012C14.2627 16.8616 14.2975 17.2356 14.4363 17.5762C14.5899 17.95 14.8602 18.2641 15.2069 18.4718C15.5535 18.6795 15.958 18.7696 16.36 18.7287Z" fill="white"/>
</svg>
