<svg width="26" height="26" viewBox="0 0 26 26" fill="none" xmlns="http://www.w3.org/2000/svg">
<path fill-rule="evenodd" clip-rule="evenodd" d="M23.9899 0.121806C24.1076 0.194597 24.2047 0.296243 24.2721 0.417106C24.3395 0.53797 24.3749 0.674045 24.375 0.812431V25.1874C24.375 25.4029 24.2894 25.6096 24.137 25.762C23.9847 25.9143 23.778 25.9999 23.5625 25.9999H18.6875C18.472 25.9999 18.2653 25.9143 18.113 25.762C17.9606 25.6096 17.875 25.4029 17.875 25.1874V22.7499H16.25V25.1874C16.25 25.4029 16.1644 25.6096 16.012 25.762C15.8597 25.9143 15.653 25.9999 15.4375 25.9999H0.8125C0.597012 25.9999 0.390349 25.9143 0.237976 25.762C0.0856024 25.6096 0 25.4029 0 25.1874V16.2499C0.000129426 16.0795 0.0538657 15.9134 0.153603 15.7751C0.25334 15.6369 0.394027 15.5335 0.55575 15.4797L9.75 12.4149V7.31243C9.75 7.16167 9.79196 7.01388 9.87117 6.88559C9.95037 6.75731 10.0637 6.6536 10.1985 6.58606L23.1985 0.086056C23.3225 0.0239905 23.4603 -0.00530771 23.5988 0.000949975C23.7374 0.00720766 23.872 0.048813 23.9899 0.121806ZM9.75 14.1277L1.625 16.8349V24.3749H9.75V14.1277ZM11.375 24.3749H14.625V21.9374C14.625 21.7219 14.7106 21.5153 14.863 21.3629C15.0153 21.2105 15.222 21.1249 15.4375 21.1249H18.6875C18.903 21.1249 19.1097 21.2105 19.262 21.3629C19.4144 21.5153 19.5 21.7219 19.5 21.9374V24.3749H22.75V2.12706L11.375 7.81456V24.3749Z" fill="#082947"/>
<path d="M3.25 17.875H4.875V19.5H3.25V17.875ZM6.5 17.875H8.125V19.5H6.5V17.875ZM3.25 21.125H4.875V22.75H3.25V21.125ZM6.5 21.125H8.125V22.75H6.5V21.125ZM13 14.625H14.625V16.25H13V14.625ZM16.25 14.625H17.875V16.25H16.25V14.625ZM13 17.875H14.625V19.5H13V17.875ZM16.25 17.875H17.875V19.5H16.25V17.875ZM19.5 14.625H21.125V16.25H19.5V14.625ZM19.5 17.875H21.125V19.5H19.5V17.875ZM13 11.375H14.625V13H13V11.375ZM16.25 11.375H17.875V13H16.25V11.375ZM19.5 11.375H21.125V13H19.5V11.375ZM13 8.125H14.625V9.75H13V8.125ZM16.25 8.125H17.875V9.75H16.25V8.125ZM19.5 8.125H21.125V9.75H19.5V8.125ZM19.5 4.875H21.125V6.5H19.5V4.875Z" fill="#082947"/>
</svg>
