<svg width="23" height="21" viewBox="0 0 24 24" fill="none" xmlns="http://www.w3.org/2000/svg">
<path d="M3 0C1.355 0 0 1.355 0 3V5C0 6.645 1.355 8 3 8H8.33333C9.97833 8 11.3333 6.645 11.3333 5V3C11.3333 1.355 9.97833 0 8.33333 0H3ZM15.6667 0C14.0217 0 12.6667 1.355 12.6667 3V11.6667C12.6667 13.3117 14.0217 14.6667 15.6667 14.6667H21C22.645 14.6667 24 13.3117 24 11.6667V3C24 1.355 22.645 0 21 0H15.6667ZM3 2H8.33333C8.89767 2 9.33333 2.43567 9.33333 3V5C9.33333 5.56433 8.89767 6 8.33333 6H3C2.43567 6 2 5.56433 2 5V3C2 2.43567 2.43567 2 3 2ZM15.6667 2H21C21.5643 2 22 2.43567 22 3V11.6667C22 12.231 21.5643 12.6667 21 12.6667H15.6667C15.1023 12.6667 14.6667 12.231 14.6667 11.6667V3C14.6667 2.43567 15.1023 2 15.6667 2ZM3 9.33333C1.355 9.33333 0 10.6883 0 12.3333V21C0 22.645 1.355 24 3 24H8.33333C9.97833 24 11.3333 22.645 11.3333 21V12.3333C11.3333 10.6883 9.97833 9.33333 8.33333 9.33333H3ZM3 11.3333H8.33333C8.89767 11.3333 9.33333 11.769 9.33333 12.3333V21C9.33333 21.5643 8.89767 22 8.33333 22H3C2.43567 22 2 21.5643 2 21V12.3333C2 11.769 2.43567 11.3333 3 11.3333ZM15.6667 16C14.0217 16 12.6667 17.355 12.6667 19V21C12.6667 22.645 14.0217 24 15.6667 24H21C22.645 24 24 22.645 24 21V19C24 17.355 22.645 16 21 16H15.6667ZM15.6667 18H21C21.5643 18 22 18.4357 22 19V21C22 21.5643 21.5643 22 21 22H15.6667C15.1023 22 14.6667 21.5643 14.6667 21V19C14.6667 18.4357 15.1023 18 15.6667 18Z" fill="current"/>
</svg>
