<svg width="31" height="32" viewBox="0 0 31 32" fill="none" xmlns="http://www.w3.org/2000/svg">
<path d="M9.5625 3.1875H9.25C9.42188 3.1875 9.5625 3.04688 9.5625 2.875V3.1875H21.4375V2.875C21.4375 3.04688 21.5781 3.1875 21.75 3.1875H21.4375V6H24.25V2.875C24.25 1.49609 23.1289 0.375 21.75 0.375H9.25C7.87109 0.375 6.75 1.49609 6.75 2.875V6H9.5625V3.1875ZM29.25 6H1.75C1.05859 6 0.5 6.55859 0.5 7.25V8.5C0.5 8.67188 0.640625 8.8125 0.8125 8.8125H3.17187L4.13672 29.2422C4.19922 30.5742 5.30078 31.625 6.63281 31.625H24.3672C25.7031 31.625 26.8008 30.5781 26.8633 29.2422L27.8281 8.8125H30.1875C30.3594 8.8125 30.5 8.67188 30.5 8.5V7.25C30.5 6.55859 29.9414 6 29.25 6ZM24.0664 28.8125H6.93359L5.98828 8.8125H25.0117L24.0664 28.8125Z" fill="#082947"/>
</svg>
