<svg width="179" height="38" viewBox="0 0 179 38" fill="none" xmlns="http://www.w3.org/2000/svg">
<path d="M3.93652 0.38916V9.43458H26.7881V33.4099H34.8938V0.38916H3.93652Z" fill="#2C5AA0"/>
<path d="M0.128906 11.269H24.6168V37.389H0.128906V11.269Z" fill="#918A6F" fill-opacity="0.913706"/>
<path d="M42.127 17.959V32.0752C42.127 32.6943 42.3978 32.9833 42.9783 32.9833H45.1066C45.687 32.9833 45.9579 32.6943 45.9579 32.0752V18.6194C45.9579 16.4318 47.1962 15.0697 49.2471 15.0697H60.0434C62.0943 15.0697 63.3326 16.4318 63.3326 18.6194V32.0752C63.3326 32.6943 63.6035 32.9833 64.1839 32.9833H66.3122C66.8927 32.9833 67.1636 32.6943 67.1636 32.0752V17.959C67.1636 14.0791 64.7257 11.52 61.0882 11.52H48.1636C44.5648 11.52 42.127 14.0791 42.127 17.959Z" fill="#00AAD4"/>
<path d="M77.7876 32.9833H91.2927C94.8914 32.9833 97.3293 30.4242 97.3293 26.5443V17.959C97.3293 14.0791 94.8914 11.52 91.2927 11.52H77.7876C74.1888 11.52 71.751 14.0791 71.751 17.959V26.5443C71.751 30.4242 74.1888 32.9833 77.7876 32.9833ZM78.8711 15.0697H90.2092C92.2601 15.0697 93.5371 16.4318 93.5371 18.6194V25.8839C93.5371 28.0715 92.2601 29.4336 90.2092 29.4336H78.8711C76.8202 29.4336 75.5432 28.0715 75.5432 25.8839V18.6194C75.5432 16.4318 76.8202 15.0697 78.8711 15.0697Z" fill="#00AAD4"/>
<path d="M125.012 29.4336H108.876C106.825 29.4336 105.548 28.0715 105.548 25.8839V18.6194C105.548 16.4318 106.825 15.0697 108.876 15.0697H125.012C125.554 15.0697 125.825 14.7808 125.825 14.2029V12.4281C125.825 11.8089 125.554 11.52 125.012 11.52H107.793C104.194 11.52 101.756 14.0791 101.756 17.959V26.5443C101.756 30.4242 104.194 32.9833 107.793 32.9833H125.012C125.554 32.9833 125.825 32.6943 125.825 32.0752V30.3004C125.825 29.7225 125.554 29.4336 125.012 29.4336Z" fill="#00AAD4"/>
<path d="M146.98 29.4338H139.164C137.113 29.4338 135.836 28.0717 135.836 25.8841V15.07H146.864C147.445 15.07 147.716 14.781 147.716 14.2032V12.4283C147.716 11.8092 147.445 11.5203 146.864 11.5203H135.836V7.2689C135.836 6.64977 135.565 6.36084 134.984 6.36084H132.895C132.314 6.36084 132.043 6.64977 132.043 7.2689V11.5203H129.335C128.754 11.5203 128.483 11.8092 128.483 12.4283V14.2032C128.483 14.781 128.754 15.07 129.335 15.07H132.043V26.5445C132.043 30.4244 134.481 32.9835 138.08 32.9835H146.98C147.561 32.9835 147.832 32.6946 147.832 32.0755V30.3006C147.832 29.7228 147.561 29.4338 146.98 29.4338Z" fill="#00AAD4"/>
<path d="M155.623 26.9163V12.4286C155.623 11.8094 155.352 11.5205 154.772 11.5205H152.643C152.063 11.5205 151.792 11.8094 151.792 12.4286V27.329C151.792 31.0438 153.572 32.9837 157.055 32.9837H158.332C158.912 32.9837 159.183 32.6948 159.183 32.0757V30.3008C159.183 29.723 158.912 29.4341 158.332 29.4341H157.867C156.242 29.4341 155.623 28.6498 155.623 26.9163ZM155.623 3.43052C155.623 2.81139 155.352 2.52246 154.772 2.52246H152.643C152.063 2.52246 151.792 2.81139 151.792 3.43052V6.69128C151.792 7.31041 152.063 7.55807 152.643 7.55807H154.772C155.352 7.55807 155.623 7.31041 155.623 6.69128V3.43052Z" fill="#00AAD4"/>
<path d="M166.432 26.9163V3.43052C166.432 2.81139 166.161 2.52246 165.58 2.52246H163.452C162.871 2.52246 162.601 2.81139 162.601 3.43052V27.329C162.601 31.0438 164.381 32.9837 167.863 32.9837H169.14C169.721 32.9837 169.992 32.6948 169.992 32.0757V30.3008C169.992 29.723 169.721 29.4341 169.14 29.4341H168.676C167.051 29.4341 166.432 28.6498 166.432 26.9163Z" fill="#00AAD4"/>
<path d="M174.298 32.9836H177.2C177.819 32.9836 178.129 32.6534 178.129 31.993V28.8973C178.129 28.2369 177.819 27.9067 177.2 27.9067H174.298C173.679 27.9067 173.369 28.2369 173.369 28.8973V31.993C173.369 32.6534 173.679 32.9836 174.298 32.9836Z" fill="#00AAD4"/>
</svg>
