<svg width="18" height="22" viewBox="0 0 18 22" fill="none" xmlns="http://www.w3.org/2000/svg">
<path d="M16.4053 0.0631854C16.6134 -0.00179087 16.8339 -0.0169174 17.0489 0.0190276C17.264 0.0549725 17.1857 0.00607074 17.3614 0.1352C17.5371 0.264329 17.5931 0.375272 17.6916 0.569792C17.7901 0.764311 17.7959 1.22093 17.796 1.43898L17.863 15.7419C17.863 16.5251 17.9459 17.2853 17.4599 17.8995C16.9739 18.5136 16.2947 18.9457 15.5324 19.1256C14.7702 19.3055 13.9695 19.2228 13.2601 18.8909C12.5507 18.559 11.9742 17.9972 11.624 17.2967C11.2737 16.5962 11.1702 15.7979 11.3303 15.0313C11.4904 14.2646 11.9046 13.5744 12.5059 13.0726C13.1072 12.5708 13.8604 12.2867 14.6433 12.2663C15.4262 12.246 15.2555 12.3038 16.1247 12.3038V5.7849L7.43283 8.61289V18.5233C7.43283 19.3065 6.82038 20.0667 6.33434 20.6809C5.84829 21.295 5.16913 21.727 4.40688 21.907C3.64463 22.0869 2.84395 22.0042 2.13457 21.6723C1.42518 21.3404 0.84866 20.7786 0.498401 20.0781C0.148142 19.3776 0.0446686 18.5793 0.204746 17.8127C0.364823 17.046 0.779073 16.3558 1.38038 15.854C1.98168 15.3522 2.73482 15.068 3.51775 15.0477C4.30069 15.0273 5.06757 15.272 5.69413 15.7419V4.43275C5.694 4.13621 5.78866 3.8474 5.96429 3.60847C6.13993 3.36954 6.28058 3.26571 6.56365 3.17734L16.4053 0.0631854ZM7.43283 6.65408L16.1247 4.04653V2.30816L7.43283 4.91571V6.65408ZM3.60809 16.4372C3.05484 16.4372 2.52424 16.657 2.13303 17.0482C1.74182 17.4394 1.52205 17.97 1.52205 18.5233C1.52205 19.0765 1.74182 19.6071 2.13303 19.9983C2.52424 20.3895 3.05484 20.6093 3.60809 20.6093C4.16134 20.6093 4.69193 20.3895 5.08314 19.9983C5.47435 19.6071 5.69413 19.0765 5.69413 18.5233C5.69413 17.97 5.47435 17.4394 5.08314 17.0482C4.69193 16.657 4.16134 16.4372 3.60809 16.4372ZM12.6476 15.7419C12.6476 16.2951 12.8674 16.8257 13.2586 17.2169C13.6498 17.6081 14.1804 17.8279 14.7336 17.8279C15.2869 17.8279 15.8175 17.6081 16.2087 17.2169C16.5999 16.8257 16.8197 16.2951 16.8197 15.7419C16.8197 15.1886 16.5999 14.658 16.2087 14.2668C15.8175 13.8756 15.2869 13.6558 14.7336 13.6558C14.1804 13.6558 13.6498 13.8756 13.2586 14.2668C12.8674 14.658 12.6476 15.1886 12.6476 15.7419Z" fill="current"/>
</svg>
