<svg width="36" height="36" viewBox="0 0 36 36" fill="none" xmlns="http://www.w3.org/2000/svg">
<path d="M26.6621 5.40002C27.7066 5.40002 28.7083 5.89784 29.4469 6.78394C30.1855 7.67005 30.6004 8.87188 30.6004 10.125V25.875C30.6004 27.1282 30.1855 28.33 29.4469 29.2161C28.7083 30.1022 27.7066 30.6 26.6621 30.6H9.33871C8.2942 30.6 7.29248 30.1022 6.5539 29.2161C5.81532 28.33 5.40039 27.1282 5.40039 25.875V10.125C5.40039 8.87209 5.81518 7.67046 6.55353 6.78439C7.29188 5.89832 8.29334 5.40036 9.33766 5.40002H26.6631H26.6621ZM29.0251 10.125C29.0251 9.37314 28.7761 8.65204 28.333 8.12038C27.8898 7.58871 27.2888 7.29002 26.6621 7.29002H14.8534V28.71H26.6621C27.2888 28.71 27.8898 28.4113 28.333 27.8797C28.7761 27.348 29.0251 26.6269 29.0251 25.875V10.125ZM13.2781 28.71V7.29002H9.33976C8.71306 7.29002 8.11202 7.58871 7.66887 8.12038C7.22573 8.65204 6.97677 9.37314 6.97677 10.125V25.875C6.97677 26.6269 7.22573 27.348 7.66887 27.8797C8.11202 28.4113 8.71306 28.71 9.33976 28.71H13.2781Z" fill="#435055"/>
</svg>
