<svg width="21" height="21" viewBox="0 0 26 28" fill="none" xmlns="http://www.w3.org/2000/svg">
<path d="M12.9996 0.666626C11.9483 0.666626 10.9347 0.799578 9.96706 1.0247C9.76527 1.0718 9.5831 1.18041 9.44571 1.33552C9.30833 1.49063 9.22252 1.68459 9.20013 1.89058L8.98789 3.82548C8.91848 4.45953 8.55222 5.02053 7.99961 5.3398C7.4481 5.65844 6.77869 5.69374 6.19492 5.43746H6.19362L4.41628 4.65491C4.2267 4.57148 4.0159 4.54897 3.81298 4.59049C3.61006 4.632 3.42504 4.7355 3.28346 4.88668C1.9018 6.35968 0.841397 8.14334 0.239193 10.1341C0.179208 10.3322 0.182188 10.5441 0.247724 10.7405C0.313259 10.9368 0.438119 11.108 0.605079 11.2304L2.1819 12.3867C2.69681 12.7652 2.99961 13.3618 2.99961 14C2.99961 14.6384 2.69681 15.2355 2.1819 15.6132L0.605079 16.7682C0.438119 16.8906 0.313259 17.0618 0.247724 17.2582C0.182188 17.4545 0.179208 17.6664 0.239193 17.8645C0.841333 19.8551 1.90089 21.64 3.28346 23.1132C3.42519 23.2642 3.61029 23.3674 3.8132 23.4087C4.01611 23.45 4.22683 23.4273 4.41628 23.3437L6.19362 22.5612C6.77767 22.3043 7.44772 22.3413 7.99961 22.6601C8.55222 22.9794 8.91848 23.5404 8.98789 24.1744L9.20013 26.1093C9.22268 26.3149 9.30842 26.5085 9.44554 26.6633C9.58265 26.8181 9.7644 26.9267 9.96576 26.9739C10.9339 27.1999 11.9483 27.3333 12.9996 27.3333C14.0509 27.3333 15.0645 27.2003 16.0322 26.9752C16.2339 26.9281 16.4161 26.8195 16.5535 26.6644C16.6909 26.5093 16.7767 26.3153 16.7991 26.1093L17.0113 24.1744C17.0807 23.5404 17.447 22.9794 17.9996 22.6601C18.5511 22.3415 19.2205 22.3049 19.8043 22.5612L21.5829 23.3437C21.7724 23.4273 21.9831 23.45 22.186 23.4087C22.3889 23.3674 22.574 23.2642 22.7158 23.1132C24.0974 21.6402 25.1578 19.8553 25.76 17.8645C25.82 17.6664 25.817 17.4545 25.7515 17.2582C25.686 17.0618 25.5611 16.8906 25.3941 16.7682L23.8173 15.6132C23.3024 15.2355 22.9996 14.6384 22.9996 14C22.9996 13.3615 23.3024 12.7644 23.8173 12.3867L25.3941 11.2317C25.5611 11.1093 25.686 10.9381 25.7515 10.7418C25.817 10.5454 25.82 10.3335 25.76 10.1354C25.1578 8.14464 24.0974 6.35968 22.7158 4.88668C22.574 4.73572 22.3889 4.63247 22.186 4.59119C21.9831 4.54991 21.7724 4.57263 21.5829 4.65621L19.8043 5.43876C19.2205 5.69504 18.5511 5.65844 17.9996 5.3398C17.447 5.02053 17.0807 4.45953 17.0113 3.82548L16.7991 1.89058C16.7765 1.68499 16.6908 1.49145 16.5537 1.33662C16.4166 1.18178 16.2348 1.07326 16.0335 1.026C15.0654 0.800063 14.0509 0.666626 12.9996 0.666626ZM12.9996 2.66663C13.6491 2.66663 14.2729 2.78321 14.898 2.89319L15.023 4.04293C15.1616 5.30888 15.8976 6.43485 16.9996 7.07157C18.1024 7.70872 19.445 7.78197 20.6103 7.26949L21.6676 6.80465C22.4795 7.77956 23.1223 8.88075 23.5712 10.0872L22.6337 10.7747C21.6073 11.5276 20.9996 12.7264 20.9996 14C20.9996 15.2735 21.6073 16.4723 22.6337 17.2252L23.5712 17.9127C23.1223 19.1192 22.4795 20.2204 21.6676 21.1953L20.6103 20.7304C19.445 20.218 18.1024 20.2912 16.9996 20.9283C15.8976 21.5651 15.1616 22.691 15.023 23.957L14.898 25.1067C14.2729 25.2164 13.6488 25.3333 12.9996 25.3333C12.3501 25.3333 11.7263 25.2167 11.1012 25.1067L10.9762 23.957C10.8376 22.691 10.1017 21.5651 8.99961 20.9283C7.89683 20.2912 6.55421 20.218 5.38893 20.7304L4.33164 21.1953C3.51959 20.2205 2.8769 19.1193 2.428 17.9127L3.3655 17.2252C4.39192 16.4723 4.99961 15.2735 4.99961 14C4.99961 12.7264 4.39142 11.5269 3.3655 10.7734L2.428 10.0859C2.87716 8.87898 3.52058 7.77852 4.33294 6.80334L5.38893 7.26819C6.55421 7.78066 7.89683 7.70872 8.99961 7.07157C10.1017 6.43485 10.8376 5.30888 10.9762 4.04293L11.1012 2.89319C11.7263 2.78352 12.3504 2.66663 12.9996 2.66663ZM12.9996 8.66663C10.0659 8.66663 7.66628 11.0663 7.66628 14C7.66628 16.9336 10.0659 19.3333 12.9996 19.3333C15.9333 19.3333 18.3329 16.9336 18.3329 14C18.3329 11.0663 15.9333 8.66663 12.9996 8.66663ZM12.9996 10.6666C14.8524 10.6666 16.3329 12.1472 16.3329 14C16.3329 15.8528 14.8524 17.3333 12.9996 17.3333C11.1468 17.3333 9.66628 15.8528 9.66628 14C9.66628 12.1472 11.1468 10.6666 12.9996 10.6666Z" fill="current"/>
</svg>
