<svg width="14" height="20" viewBox="0 0 14 20" fill="none" xmlns="http://www.w3.org/2000/svg">
<path d="M13.7899 6.38711C13.9453 6.5881 14.0184 6.84071 13.9943 7.09363C13.9702 7.34655 13.8507 7.58082 13.6602 7.74886C13.4696 7.91689 13.2222 8.00609 12.9683 7.99833C12.7143 7.99058 12.4728 7.88645 12.2929 7.70711L6.99988 2.41411L1.70688 7.70711L1.61288 7.79011C1.41189 7.94552 1.15928 8.0186 0.906359 7.9945C0.653436 7.97041 0.419167 7.85095 0.251134 7.66038C0.0830999 7.46982 -0.00609799 7.22244 0.00165661 6.96849C0.0094112 6.71454 0.113537 6.47306 0.292885 6.29311L6.29288 0.293105L6.38688 0.210105C6.57929 0.0608542 6.81954 -0.0130648 7.06257 0.00221635C7.30559 0.0174975 7.53469 0.120929 7.70688 0.293105L13.7069 6.29311L13.7899 6.38711ZM0.209885 13.6131C0.0544729 13.4121 -0.018608 13.1595 0.00548561 12.9066C0.0295792 12.6537 0.14904 12.4194 0.339606 12.2514C0.530171 12.0833 0.777551 11.9941 1.0315 12.0019C1.28545 12.0096 1.52693 12.1138 1.70688 12.2931L6.99988 17.5861L12.2929 12.2931L12.3869 12.2101C12.5879 12.0547 12.8405 11.9816 13.0934 12.0057C13.3463 12.0298 13.5806 12.1493 13.7486 12.3398C13.9167 12.5304 14.0059 12.7778 13.9981 13.0317C13.9904 13.2857 13.8862 13.5271 13.7069 13.7071L7.70688 19.7071L7.61288 19.7901C7.42048 19.9394 7.18023 20.0133 6.9372 19.998C6.69418 19.9827 6.46508 19.8793 6.29288 19.7071L0.292885 13.7071L0.209885 13.6131Z" fill="#968E75"/>
</svg>
