<svg width="36" height="36" viewBox="0 0 36 36" fill="none" xmlns="http://www.w3.org/2000/svg">
<path d="M9.89961 30.6C8.70613 30.6 7.56154 30.1259 6.71763 29.282C5.87371 28.438 5.39961 27.2934 5.39961 26.1L5.39961 9.89997C5.39961 8.7065 5.87371 7.56191 6.71763 6.71799C7.56154 5.87408 8.70613 5.39997 9.89961 5.39997L26.0996 5.39997C27.2931 5.39997 28.4377 5.87408 29.2816 6.71799C30.1255 7.56191 30.5996 8.7065 30.5996 9.89997L30.5996 26.1C30.5996 27.2934 30.1255 28.438 29.2816 29.282C28.4377 30.1259 27.2931 30.6 26.0996 30.6L9.89961 30.6ZM28.7996 12.6V9.89997C28.7996 9.22879 28.5496 8.58167 28.0983 8.08482C27.647 7.58797 27.0269 7.27701 26.3588 7.21257L26.0996 7.19997H23.3996L23.3996 12.6H28.7996ZM21.5996 7.19997L14.3996 7.19997V12.6L21.5996 12.6L21.5996 7.19997ZM12.5996 7.19997H9.89961C9.2287 7.19996 8.58182 7.44974 8.08501 7.90062C7.58821 8.35151 7.27706 8.97121 7.21221 9.63897L7.19961 9.89997V12.6H12.5996V7.19997ZM7.19961 14.4L7.19961 26.1C7.1996 26.7709 7.44937 27.4178 7.90026 27.9146C8.35114 28.4114 8.97084 28.7225 9.63861 28.7874L9.89961 28.8L26.0996 28.8C26.7708 28.7999 27.4179 28.5499 27.9148 28.0987C28.4116 27.6474 28.7226 27.0273 28.787 26.3592L28.7996 26.1L28.7996 14.4L7.19961 14.4Z" fill="#435055"/>
</svg>
