<svg width="24" height="24" viewBox="0 0 24 24" fill="none" xmlns="http://www.w3.org/2000/svg">
<path fill-rule="evenodd" clip-rule="evenodd" d="M0 2.39998C0 2.1878 0.0842855 1.98432 0.234315 1.83429C0.384344 1.68426 0.587827 1.59998 0.8 1.59998H4C4.21217 1.59998 4.41566 1.68426 4.56569 1.83429C4.71571 1.98432 4.8 2.1878 4.8 2.39998C4.8 2.61215 4.71571 2.81563 4.56569 2.96566C4.41566 3.11569 4.21217 3.19998 4 3.19998H0.8C0.587827 3.19998 0.384344 3.11569 0.234315 2.96566C0.0842855 2.81563 0 2.61215 0 2.39998ZM6.4 2.39998C6.4 2.1878 6.48429 1.98432 6.63432 1.83429C6.78434 1.68426 6.98783 1.59998 7.2 1.59998H23.2C23.4122 1.59998 23.6157 1.68426 23.7657 1.83429C23.9157 1.98432 24 2.1878 24 2.39998C24 2.61215 23.9157 2.81563 23.7657 2.96566C23.6157 3.11569 23.4122 3.19998 23.2 3.19998H7.2C6.98783 3.19998 6.78434 3.11569 6.63432 2.96566C6.48429 2.81563 6.4 2.61215 6.4 2.39998ZM6.4 7.19998C6.4 6.9878 6.48429 6.78432 6.63432 6.63429C6.78434 6.48426 6.98783 6.39998 7.2 6.39998H18.4C18.6122 6.39998 18.8157 6.48426 18.9657 6.63429C19.1157 6.78432 19.2 6.9878 19.2 7.19998C19.2 7.41215 19.1157 7.61563 18.9657 7.76566C18.8157 7.91569 18.6122 7.99998 18.4 7.99998H7.2C6.98783 7.99998 6.78434 7.91569 6.63432 7.76566C6.48429 7.61563 6.4 7.41215 6.4 7.19998ZM0 12C0 11.7878 0.0842855 11.5843 0.234315 11.4343C0.384344 11.2843 0.587827 11.2 0.8 11.2H4C4.21217 11.2 4.41566 11.2843 4.56569 11.4343C4.71571 11.5843 4.8 11.7878 4.8 12C4.8 12.2121 4.71571 12.4156 4.56569 12.5657C4.41566 12.7157 4.21217 12.8 4 12.8H0.8C0.587827 12.8 0.384344 12.7157 0.234315 12.5657C0.0842855 12.4156 0 12.2121 0 12ZM6.4 12C6.4 11.7878 6.48429 11.5843 6.63432 11.4343C6.78434 11.2843 6.98783 11.2 7.2 11.2H23.2C23.4122 11.2 23.6157 11.2843 23.7657 11.4343C23.9157 11.5843 24 11.7878 24 12C24 12.2121 23.9157 12.4156 23.7657 12.5657C23.6157 12.7157 23.4122 12.8 23.2 12.8H7.2C6.98783 12.8 6.78434 12.7157 6.63432 12.5657C6.48429 12.4156 6.4 12.2121 6.4 12ZM6.4 16.8C6.4 16.5878 6.48429 16.3843 6.63432 16.2343C6.78434 16.0843 6.98783 16 7.2 16H18.4C18.6122 16 18.8157 16.0843 18.9657 16.2343C19.1157 16.3843 19.2 16.5878 19.2 16.8C19.2 17.0121 19.1157 17.2156 18.9657 17.3657C18.8157 17.5157 18.6122 17.6 18.4 17.6H7.2C6.98783 17.6 6.78434 17.5157 6.63432 17.3657C6.48429 17.2156 6.4 17.0121 6.4 16.8ZM0 21.6C0 21.3878 0.0842855 21.1843 0.234315 21.0343C0.384344 20.8843 0.587827 20.8 0.8 20.8H4C4.21217 20.8 4.41566 20.8843 4.56569 21.0343C4.71571 21.1843 4.8 21.3878 4.8 21.6C4.8 21.8121 4.71571 22.0156 4.56569 22.1657C4.41566 22.3157 4.21217 22.4 4 22.4H0.8C0.587827 22.4 0.384344 22.3157 0.234315 22.1657C0.0842855 22.0156 0 21.8121 0 21.6ZM6.4 21.6C6.4 21.3878 6.48429 21.1843 6.63432 21.0343C6.78434 20.8843 6.98783 20.8 7.2 20.8H23.2C23.4122 20.8 23.6157 20.8843 23.7657 21.0343C23.9157 21.1843 24 21.3878 24 21.6C24 21.8121 23.9157 22.0156 23.7657 22.1657C23.6157 22.3157 23.4122 22.4 23.2 22.4H7.2C6.98783 22.4 6.78434 22.3157 6.63432 22.1657C6.48429 22.0156 6.4 21.8121 6.4 21.6Z" fill="#435055"/>
</svg>
