<svg width="26" height="28" viewBox="0 0 26 28" fill="none" xmlns="http://www.w3.org/2000/svg">
<path d="M8.45 18.4826C8.58956 18.5948 8.76133 18.6545 8.9375 18.6522C9.06364 18.6522 9.18804 18.6215 9.30086 18.5626C9.41368 18.5038 9.51182 18.4183 9.5875 18.313C10.0794 17.6286 10.7173 17.0731 11.4507 16.6905C12.184 16.3079 12.9926 16.1087 13.8125 16.1087C14.6324 16.1087 15.441 16.3079 16.1743 16.6905C16.9077 17.0731 17.5456 17.6286 18.0375 18.313C18.1684 18.4906 18.3606 18.6077 18.5732 18.6394C18.7857 18.6711 19.0017 18.6148 19.175 18.4826C19.2604 18.4158 19.3323 18.3321 19.3866 18.2363C19.441 18.1405 19.4767 18.0344 19.4918 17.9242C19.5069 17.814 19.5011 17.7018 19.4746 17.5939C19.4481 17.4861 19.4015 17.3847 19.3375 17.2956C18.6185 16.2884 17.659 15.4955 16.5547 14.9959C17.1589 14.4191 17.5819 13.6653 17.7683 12.8333C17.9547 12.0012 17.8959 11.1299 17.5994 10.3334C17.3029 9.53686 16.7827 8.85245 16.1069 8.36987C15.4311 7.88729 14.6314 7.62907 13.8125 7.62907C12.9936 7.62907 12.1939 7.88729 11.5181 8.36987C10.8423 8.85245 10.3221 9.53686 10.0256 10.3334C9.72915 11.1299 9.67026 12.0012 9.85668 12.8333C10.0431 13.6653 10.4661 14.4191 11.0703 14.9959C9.96604 15.4955 9.00655 16.2884 8.2875 17.2956C8.15821 17.4755 8.10269 17.7016 8.13317 17.9242C8.16364 18.1468 8.27761 18.3477 8.45 18.4826ZM11.375 11.8695C11.375 11.3665 11.518 10.8747 11.7858 10.4565C12.0536 10.0382 12.4343 9.71219 12.8797 9.51968C13.3251 9.32717 13.8152 9.2768 14.288 9.37494C14.7609 9.47308 15.1952 9.71532 15.5361 10.071C15.877 10.4267 16.1091 10.8799 16.2032 11.3733C16.2972 11.8667 16.2489 12.3781 16.0645 12.8429C15.88 13.3077 15.5675 13.7049 15.1667 13.9844C14.7659 14.2639 14.2946 14.413 13.8125 14.413C13.1669 14.4102 12.5484 14.1414 12.0919 13.665C11.6353 13.1886 11.3777 12.5433 11.375 11.8695ZM21.125 2.54346H6.5C6.06902 2.54346 5.6557 2.72211 5.35095 3.0401C5.0462 3.3581 4.875 3.78939 4.875 4.23911V6.35867H3.25C3.03451 6.35867 2.82785 6.448 2.67548 6.607C2.5231 6.766 2.4375 6.98164 2.4375 7.2065C2.4375 7.43136 2.5231 7.64701 2.67548 7.806C2.82785 7.965 3.03451 8.05433 3.25 8.05433H4.875V10.5978H3.25C3.03451 10.5978 2.82785 10.6871 2.67548 10.8461C2.5231 11.0051 2.4375 11.2208 2.4375 11.4456C2.4375 11.6705 2.5231 11.8861 2.67548 12.0451C2.82785 12.2041 3.03451 12.2935 3.25 12.2935H4.875V14.8369H3.25C3.03451 14.8369 2.82785 14.9263 2.67548 15.0853C2.5231 15.2443 2.4375 15.4599 2.4375 15.6848C2.4375 15.9096 2.5231 16.1253 2.67548 16.2843C2.82785 16.4433 3.03451 16.5326 3.25 16.5326H4.875V19.0761H3.25C3.03451 19.0761 2.82785 19.1654 2.67548 19.3244C2.5231 19.4834 2.4375 19.699 2.4375 19.9239C2.4375 20.1488 2.5231 20.3644 2.67548 20.5234C2.82785 20.6824 3.03451 20.7717 3.25 20.7717H4.875V22.8913C4.875 23.341 5.0462 23.7723 5.35095 24.0903C5.6557 24.4083 6.06902 24.5869 6.5 24.5869H21.125C21.556 24.5869 21.9693 24.4083 22.274 24.0903C22.5788 23.7723 22.75 23.341 22.75 22.8913V4.23911C22.75 3.78939 22.5788 3.3581 22.274 3.0401C21.9693 2.72211 21.556 2.54346 21.125 2.54346ZM21.125 22.8913H6.5V4.23911H21.125V22.8913Z" fill="#082947"/>
</svg>
