<svg width="28" height="28" viewBox="0 0 28 28" fill="none" xmlns="http://www.w3.org/2000/svg">
<path d="M22.7501 14C22.1271 14.0032 21.5165 14.1743 20.9826 14.4952L18.481 11.9936L20.4873 9.98725C20.8154 9.65908 20.9997 9.21404 20.9997 8.75C20.9997 8.28596 20.8154 7.84092 20.4873 7.51275L15.2373 2.26275C14.9092 1.93468 14.4641 1.75037 14.0001 1.75037C13.536 1.75037 13.091 1.93468 12.7628 2.26275L7.51284 7.51275C7.18476 7.84092 7.00046 8.28596 7.00046 8.75C7.00046 9.21404 7.18476 9.65908 7.51284 9.98725L9.51921 11.9936L7.01759 14.4952C6.27636 14.0555 5.40007 13.9014 4.55328 14.062C3.70649 14.2226 2.94745 14.6868 2.41871 15.3674C1.88997 16.0481 1.6279 16.8983 1.68171 17.7585C1.73552 18.6187 2.10151 19.4297 2.71096 20.0391C3.3204 20.6486 4.13137 21.0146 4.99157 21.0684C5.85177 21.1222 6.70203 20.8601 7.38267 20.3314C8.06331 19.8026 8.52752 19.0436 8.68811 18.1968C8.8487 17.35 8.69463 16.4737 8.25484 15.7325L10.7565 13.2309L12.7628 15.2372C12.8712 15.3431 12.993 15.4343 13.1251 15.5085V19.25H10.5001V26.25H17.5001V19.25H14.8751V15.5076C15.0071 15.4337 15.1289 15.3428 15.2373 15.2372L17.2437 13.2309L19.7453 15.7325C19.3578 16.3972 19.2008 17.1714 19.2987 17.9346C19.3967 18.6977 19.744 19.4072 20.2868 19.9525C20.8296 20.4979 21.5373 20.8486 22.3 20.9502C23.0627 21.0518 23.8376 20.8984 24.5042 20.5141C25.1708 20.1298 25.6917 19.536 25.9859 18.825C26.2801 18.114 26.3311 17.3258 26.1311 16.5828C25.931 15.8398 25.491 15.1838 24.8796 14.7167C24.2682 14.2496 23.5195 13.9977 22.7501 14ZM7.00009 17.5C7.00009 17.8461 6.89745 18.1845 6.70516 18.4722C6.51287 18.76 6.23955 18.9843 5.91978 19.1168C5.60001 19.2492 5.24815 19.2839 4.90868 19.2164C4.56921 19.1488 4.25739 18.9822 4.01265 18.7374C3.76791 18.4927 3.60124 18.1809 3.53371 17.8414C3.46619 17.5019 3.50084 17.1501 3.6333 16.8303C3.76575 16.5105 3.99005 16.2372 4.27784 16.0449C4.56562 15.8526 4.90397 15.75 5.25009 15.75C5.71407 15.7505 6.15892 15.935 6.48701 16.2631C6.8151 16.5912 6.99962 17.036 7.00009 17.5ZM15.7501 21V24.5H12.2501V21H15.7501ZM14.0001 14L8.75009 8.75L14.0001 3.5L19.2501 8.75L14.0001 14ZM22.7501 19.25C22.404 19.25 22.0656 19.1474 21.7778 18.9551C21.4901 18.7628 21.2657 18.4895 21.1333 18.1697C21.0008 17.8499 20.9662 17.4981 21.0337 17.1586C21.1012 16.8191 21.2679 16.5073 21.5126 16.2626C21.7574 16.0178 22.0692 15.8511 22.4087 15.7836C22.7481 15.7161 23.1 15.7508 23.4198 15.8832C23.7396 16.0157 24.0129 16.24 24.2052 16.5278C24.3974 16.8155 24.5001 17.1539 24.5001 17.5C24.4996 17.964 24.3151 18.4088 23.987 18.7369C23.6589 19.065 23.2141 19.2495 22.7501 19.25Z" fill="#082947"/>
</svg>
