<svg width="12" height="8" viewBox="0 0 12 8" fill="none" xmlns="http://www.w3.org/2000/svg">
<path d="M11.3288 0.79269C11.1881 0.796016 11.0545 0.854798 10.9569 0.956232L6.00069 5.91248L1.04444 0.956232C0.994743 0.905141 0.935306 0.864531 0.869645 0.836799C0.803984 0.809068 0.73343 0.794778 0.662153 0.794773C0.556055 0.794801 0.452376 0.82647 0.364371 0.88573C0.276366 0.944991 0.208034 1.02915 0.16811 1.12745C0.128186 1.22575 0.118485 1.33372 0.140247 1.43757C0.162009 1.54141 0.214246 1.6364 0.290278 1.7104L5.62361 7.04373C5.72363 7.14371 5.85927 7.19988 6.00069 7.19988C6.14212 7.19988 6.27775 7.14371 6.37778 7.04373L11.7111 1.7104C11.7886 1.63592 11.8417 1.53978 11.8636 1.43458C11.8855 1.32937 11.8751 1.22001 11.8338 1.12082C11.7925 1.02163 11.7221 0.937226 11.632 0.878676C11.5419 0.820125 11.4362 0.790155 11.3288 0.79269Z" fill="#DCDEDF"/>
</svg>
