<svg width="26" height="26" viewBox="0 0 26 26" fill="none" xmlns="http://www.w3.org/2000/svg">
<path d="M9.58586 5.91265L5.20378 13.5026C4.34182 14.9956 4.10824 16.7698 4.55442 18.435C5.0006 20.1001 6.08999 21.5198 7.58294 22.3818C9.07589 23.2438 10.8501 23.4773 12.5153 23.0312C14.1804 22.585 15.6002 21.4956 16.4621 20.0026L21.8788 10.6207C22.4534 9.6254 22.6091 8.44259 22.3117 7.33248C22.0142 6.22237 21.288 5.27589 20.2927 4.70125C19.2974 4.12662 18.1146 3.9709 17.0044 4.26835C15.8943 4.5658 14.9479 5.29206 14.3732 6.28736L9.39964 14.9019C9.25737 15.1483 9.16503 15.4203 9.12789 15.7024C9.09076 15.9845 9.10954 16.2711 9.18319 16.546C9.25683 16.8208 9.38388 17.0784 9.55709 17.3042C9.7303 17.5299 9.94628 17.7193 10.1927 17.8616V17.8616C10.6903 18.1489 11.2817 18.2268 11.8368 18.078C12.3919 17.9293 12.8651 17.5662 13.1524 17.0685L17.0427 10.3304" stroke="#435055" stroke-width="1.5" stroke-linecap="round" stroke-linejoin="round"/>
</svg>
