<svg width="19" height="26" viewBox="0 0 19 26" fill="none" xmlns="http://www.w3.org/2000/svg">
<path d="M18.5234 11.4141C18.5234 11.2937 18.425 11.1953 18.3047 11.1953H16.6641C16.5438 11.1953 16.4453 11.2937 16.4453 11.4141C16.4453 15.2504 13.3363 18.3594 9.5 18.3594C5.66367 18.3594 2.55469 15.2504 2.55469 11.4141C2.55469 11.2937 2.45625 11.1953 2.33594 11.1953H0.695312C0.575 11.1953 0.476562 11.2937 0.476562 11.4141C0.476562 16.027 3.93828 19.8332 8.40625 20.3719V23.1719H4.4332C4.05859 23.1719 3.75781 23.5629 3.75781 24.0469V25.0312C3.75781 25.1516 3.83438 25.25 3.92734 25.25H15.0727C15.1656 25.25 15.2422 25.1516 15.2422 25.0312V24.0469C15.2422 23.5629 14.9414 23.1719 14.5668 23.1719H10.4844V20.3855C15.0043 19.8934 18.5234 16.0652 18.5234 11.4141ZM9.5 16.0625C12.0676 16.0625 14.1484 14.0063 14.1484 11.4688V5.34375C14.1484 2.80625 12.0676 0.75 9.5 0.75C6.93242 0.75 4.85156 2.80625 4.85156 5.34375V11.4688C4.85156 14.0063 6.93242 16.0625 9.5 16.0625ZM6.92969 5.34375C6.92969 3.96016 8.07539 2.82812 9.5 2.82812C10.9246 2.82812 12.0703 3.96016 12.0703 5.34375V11.4688C12.0703 12.8523 10.9246 13.9844 9.5 13.9844C8.07539 13.9844 6.92969 12.8523 6.92969 11.4688V5.34375Z" fill="#435055"/>
</svg>
