<svg width="16" height="16" viewBox="0 0 16 16" fill="none" xmlns="http://www.w3.org/2000/svg">
<path d="M12.5909 4.40909V12.5909H4.40909V4.40909H12.5909ZM12.5909 3.5H4.40909C4.16799 3.5 3.93675 3.59578 3.76627 3.76627C3.59578 3.93675 3.5 4.16799 3.5 4.40909V12.5909C3.5 12.832 3.59578 13.0632 3.76627 13.2337C3.93675 13.4042 4.16799 13.5 4.40909 13.5H12.5909C12.832 13.5 13.0632 13.4042 13.2337 13.2337C13.4042 13.0632 13.5 12.832 13.5 12.5909V4.40909C13.5 4.16799 13.4042 3.93675 13.2337 3.76627C13.0632 3.59578 12.832 3.5 12.5909 3.5Z" fill="black"/>
<path d="M1.875 8H1V1.875C1 1.64294 1.09219 1.42038 1.25628 1.25628C1.42038 1.09219 1.64294 1 1.875 1H8V1.875H1.875V8Z" fill="black"/>
</svg>
