<svg width="28" height="28" viewBox="0 0 28 28" fill="none" xmlns="http://www.w3.org/2000/svg">
<path d="M22.0341 7.71591V22.0341H7.71591V7.71591H22.0341ZM22.0341 6.125H7.71591C7.29397 6.125 6.88932 6.29261 6.59097 6.59097C6.29261 6.88932 6.125 7.29397 6.125 7.71591V22.0341C6.125 22.456 6.29261 22.8607 6.59097 23.159C6.88932 23.4574 7.29397 23.625 7.71591 23.625H22.0341C22.456 23.625 22.8607 23.4574 23.159 23.159C23.4574 22.8607 23.625 22.456 23.625 22.0341V7.71591C23.625 7.29397 23.4574 6.88932 23.159 6.59097C22.8607 6.29261 22.456 6.125 22.0341 6.125Z" fill="#FF007F"/>
<path d="M3.28125 14H1.75V3.28125C1.75 2.87514 1.91133 2.48566 2.19849 2.19849C2.48566 1.91133 2.87514 1.75 3.28125 1.75H14V3.28125H3.28125V14Z" fill="#FF007F"/>
</svg>
