<svg width="23" height="23" viewBox="0 0 27 28" fill="none" xmlns="http://www.w3.org/2000/svg">
<path d="M2.99967 0.666687C1.52634 0.666687 0.333008 1.86002 0.333008 3.33335V24.6667C0.333008 26.14 1.52634 27.3334 2.99967 27.3334H10.9997V24.6667H2.99967V19.3334H18.9997V22H21.6663V3.33335C21.6663 1.86002 20.473 0.666687 18.9997 0.666687H2.99967ZM2.99967 3.33335H18.9997V8.66669H2.99967V3.33335ZM2.99967 11.3334H18.9997V16.6667H2.99967V11.3334ZM13.6663 24.6667V27.3334H16.333V24.6667H13.6663ZM18.9997 24.6667V27.3334H21.6663V24.6667H18.9997ZM24.333 24.6667V27.3334H26.9997V24.6667H24.333Z" fill="current"/>
</svg>
