<svg width="31" height="33" viewBox="0 0 31 33" fill="none" xmlns="http://www.w3.org/2000/svg">
<g clip-path="url(#clip0_64_242)">
<path fill-rule="evenodd" clip-rule="evenodd" d="M25.6316 4.33728H5.42109C4.03162 4.33728 2.89478 5.53845 2.89478 7.00655V25.6915C2.89478 27.1596 4.03162 28.3607 5.42109 28.3607H25.6316C27.0211 28.3607 28.1579 27.1596 28.1579 25.6915V7.00655C28.1579 5.53845 27.0211 4.33728 25.6316 4.33728ZM13 23.0222H6.68425V20.3529H13V23.0222ZM13 17.6836H6.68425V15.0144H13V17.6836ZM13 12.3451H6.68425V9.67583H13V12.3451ZM19.0885 20.3529L15.5264 16.5626L17.3074 14.6807L19.0885 16.5759L23.0927 12.3451L24.8864 14.2403L19.0885 20.3529Z" fill="#D9D8D6"/>
</g>
<defs>
<clipPath id="clip0_64_242">
<rect width="30.3158" height="32.0313" fill="white" transform="translate(0.368408 0.333374)"/>
</clipPath>
</defs>
</svg>
