<svg width="23" height="23" viewBox="0 0 32 32" fill="none" xmlns="http://www.w3.org/2000/svg">
<path d="M16.0002 8C14.6096 8.00176 13.2765 8.55496 12.2932 9.53827C11.3098 10.5216 10.7566 11.8547 10.7549 13.2453H13.4215C13.4215 11.8227 14.5789 10.6667 16.0002 10.6667C17.4215 10.6667 18.5789 11.8227 18.5789 13.2453C18.5789 14.0427 17.9376 14.6213 16.9576 15.4133C16.6374 15.6641 16.3299 15.9307 16.0362 16.212C14.7056 17.5413 14.6669 18.9533 14.6669 19.1107V20H17.3335L17.3322 19.156C17.3335 19.1347 17.3762 18.6413 17.9202 18.0987C18.1202 17.8987 18.3722 17.6987 18.6336 17.488C19.6722 16.6467 21.2442 15.376 21.2442 13.2453C21.2432 11.8547 20.6904 10.5214 19.7072 9.53796C18.724 8.55454 17.3908 8.00141 16.0002 8ZM14.6669 21.3333H17.3335V24H14.6669V21.3333Z" fill="#DCDEDF"/>
<path d="M16.0003 2.66663C8.64833 2.66663 2.66699 8.64796 2.66699 16C2.66699 23.352 8.64833 29.3333 16.0003 29.3333C23.3523 29.3333 29.3337 23.352 29.3337 16C29.3337 8.64796 23.3523 2.66663 16.0003 2.66663ZM16.0003 26.6666C10.119 26.6666 5.33366 21.8813 5.33366 16C5.33366 10.1186 10.119 5.33329 16.0003 5.33329C21.8817 5.33329 26.667 10.1186 26.667 16C26.667 21.8813 21.8817 26.6666 16.0003 26.6666Z" fill="#DCDEDF"/>
</svg>
