<svg width="20" height="20" viewBox="0 0 20 20" fill="none" xmlns="http://www.w3.org/2000/svg">
<path d="M9.98144 6.15628C10.4647 6.15628 10.8564 5.76453 10.8564 5.28128C10.8564 4.79803 10.4647 4.40628 9.98144 4.40628C9.4982 4.40628 9.10645 4.79803 9.10645 5.28128C9.10645 5.76453 9.4982 6.15628 9.98144 6.15628Z" fill="white"/>
<path d="M11.875 14.3751H10.625V7.56256H8.75C8.58424 7.56256 8.42527 7.62841 8.30806 7.74562C8.19085 7.86283 8.125 8.0218 8.125 8.18756C8.125 8.35332 8.19085 8.51229 8.30806 8.6295C8.42527 8.74671 8.58424 8.81256 8.75 8.81256H9.375V14.3751H8.125C7.95924 14.3751 7.80027 14.4409 7.68306 14.5581C7.56585 14.6753 7.5 14.8343 7.5 15.0001C7.5 15.1658 7.56585 15.3248 7.68306 15.442C7.80027 15.5592 7.95924 15.6251 8.125 15.6251H11.875C12.0408 15.6251 12.1997 15.5592 12.3169 15.442C12.4342 15.3248 12.5 15.1658 12.5 15.0001C12.5 14.8343 12.4342 14.6753 12.3169 14.5581C12.1997 14.4409 12.0408 14.3751 11.875 14.3751Z" fill="white"/>
<path d="M10 20C8.02219 20 6.08879 19.4135 4.4443 18.3147C2.79981 17.2159 1.51809 15.6541 0.761209 13.8268C0.00433281 11.9996 -0.1937 9.98891 0.192152 8.0491C0.578004 6.10929 1.53041 4.32746 2.92894 2.92894C4.32746 1.53041 6.10929 0.578004 8.0491 0.192152C9.98891 -0.1937 11.9996 0.00433281 13.8268 0.761209C15.6541 1.51809 17.2159 2.79981 18.3147 4.4443C19.4135 6.08879 20 8.02219 20 10C20 12.6522 18.9464 15.1957 17.0711 17.0711C15.1957 18.9464 12.6522 20 10 20ZM10 1.25C8.26942 1.25 6.57769 1.76318 5.13876 2.72464C3.69983 3.68611 2.57833 5.05267 1.91606 6.65152C1.25379 8.25038 1.08051 10.0097 1.41813 11.707C1.75575 13.4044 2.58911 14.9635 3.81282 16.1872C5.03653 17.4109 6.59563 18.2443 8.29296 18.5819C9.9903 18.9195 11.7496 18.7462 13.3485 18.0839C14.9473 17.4217 16.3139 16.3002 17.2754 14.8612C18.2368 13.4223 18.75 11.7306 18.75 10C18.75 7.67936 17.8281 5.45376 16.1872 3.81282C14.5462 2.17188 12.3206 1.25 10 1.25Z" fill="white"/>
</svg>
