<svg width="21" height="20" viewBox="0 0 21 20" fill="none" xmlns="http://www.w3.org/2000/svg">
<g clip-path="url(#clip0_380_3121)">
<path d="M17.0913 9.66248C16.5785 9.15282 15.9054 8.83589 15.1859 8.76529C14.4664 8.69468 13.7446 8.87472 13.1425 9.27498C12.6289 9.61766 12.2283 10.1048 11.9913 10.675C11.9183 10.8522 11.8639 11.0365 11.8288 11.225C10.5508 11.0847 9.35896 10.5129 8.44991 9.60384C7.54086 8.69479 6.969 7.5029 6.82877 6.22498C7.01721 6.18986 7.20151 6.13541 7.37877 6.06248C7.94908 5.82529 8.43631 5.42442 8.77893 4.9105C9.12155 4.39657 9.30418 3.79264 9.30377 3.17498C9.31299 2.74628 9.23208 2.32042 9.06627 1.92498C8.91043 1.54616 8.68106 1.20198 8.39142 0.912332C8.10177 0.622685 7.75759 0.393315 7.37877 0.237475C6.98333 0.0716717 6.55747 -0.00924102 6.12877 -2.49281e-05C5.51111 -0.000436795 4.90718 0.1822 4.39325 0.524817C3.87932 0.867435 3.47846 1.35467 3.24127 1.92498C3.00627 2.49722 2.94496 3.12599 3.065 3.73285C3.18504 4.33971 3.48111 4.89779 3.91627 5.33748C4.35377 5.76623 4.90377 6.06123 5.50377 6.18748V12.5625C5.10559 12.6402 4.7272 12.7975 4.39127 13.025C4.00812 13.2823 3.68671 13.6213 3.45016 14.0176C3.2136 14.4139 3.06776 14.8577 3.02313 15.317C2.97849 15.7764 3.03616 16.24 3.19199 16.6744C3.34783 17.1088 3.59796 17.5034 3.92441 17.8296C4.25086 18.1559 4.64552 18.4058 5.08004 18.5614C5.51457 18.7169 5.97816 18.7743 6.4375 18.7294C6.89685 18.6845 7.34055 18.5384 7.73672 18.3017C8.13288 18.0649 8.47168 17.7433 8.72877 17.36C9.07111 16.8466 9.25379 16.2433 9.25377 15.6262C9.26299 15.1975 9.18208 14.7717 9.01627 14.3762C8.822 13.9033 8.51375 13.4857 8.119 13.1608C7.72425 12.8358 7.25524 12.6135 6.75377 12.5137V9.51373C7.39959 10.4265 8.25754 11.1686 9.25377 11.6762C10.0678 12.093 10.9551 12.3477 11.8663 12.4262C12.0203 13.1847 12.4502 13.859 13.0728 14.3186C13.6955 14.7782 14.4665 14.9905 15.2366 14.9142C16.0068 14.838 16.7212 14.4787 17.2417 13.9059C17.7621 13.3331 18.0515 12.5876 18.0538 11.8137C18.0244 10.9992 17.6792 10.2282 17.0913 9.66373V9.66248ZM6.84127 13.8875C7.18627 14.0337 7.48127 14.2775 7.69127 14.5875C7.93155 14.9481 8.03948 15.3809 7.99671 15.8121C7.95395 16.2433 7.76312 16.6465 7.45669 16.9529C7.15026 17.2593 6.74715 17.4501 6.3159 17.4929C5.88466 17.5357 5.45192 17.4277 5.09127 17.1875C4.78064 16.9778 4.53749 16.6825 4.39127 16.3375C4.25253 15.9969 4.21774 15.6228 4.29127 15.2625C4.36185 14.8975 4.54004 14.562 4.80291 14.2991C5.06577 14.0362 5.40129 13.8581 5.76627 13.7875C6.12662 13.7139 6.50067 13.7487 6.84127 13.8875ZM6.12877 4.99998C5.75647 5.0006 5.39241 4.89038 5.08298 4.68335C4.77354 4.47632 4.53275 4.18185 4.39127 3.83748C4.25253 3.49687 4.21774 3.12282 4.29127 2.76248C4.36185 2.39749 4.54004 2.06198 4.80291 1.79911C5.06577 1.53625 5.40129 1.35806 5.76627 1.28748C6.12662 1.21394 6.50067 1.24874 6.84127 1.38748C7.24497 1.55122 7.57906 1.85042 7.78614 2.2337C7.99323 2.61698 8.06039 3.0604 7.97609 3.48781C7.89179 3.91522 7.6613 4.29994 7.32419 4.57588C6.98709 4.85183 6.56441 5.00178 6.12877 4.99998ZM16.2038 13.2C15.9855 13.4189 15.7165 13.5804 15.4207 13.6702C15.1249 13.76 14.8115 13.7753 14.5083 13.7146C14.2052 13.654 13.9218 13.5194 13.6833 13.3227C13.4448 13.1261 13.2586 12.8735 13.1413 12.5875C13.0025 12.2469 12.9677 11.8728 13.0413 11.5125C13.1119 11.1475 13.29 10.812 13.5529 10.5491C13.8158 10.2862 14.1513 10.1081 14.5163 10.0375C14.8766 9.96394 15.2507 9.99874 15.5913 10.1375C15.8775 10.2545 16.1303 10.4406 16.3272 10.6791C16.524 10.9176 16.6588 11.2011 16.7194 11.5043C16.7801 11.8076 16.7647 12.1211 16.6747 12.417C16.5848 12.7128 16.423 12.9818 16.2038 13.2Z" fill="white"/>
</g>
<defs>
<clipPath id="clip0_380_3121">
<rect width="20" height="20" fill="white" transform="translate(0.5)"/>
</clipPath>
</defs>
</svg>
