<svg width="26" height="26" viewBox="0 0 26 26" fill="none" xmlns="http://www.w3.org/2000/svg">
<path d="M4.0625 20.3125C3.74111 20.3125 3.42693 20.4078 3.1597 20.5864C2.89247 20.7649 2.68419 21.0187 2.5612 21.3156C2.4382 21.6126 2.40602 21.9393 2.46872 22.2545C2.53143 22.5697 2.68619 22.8593 2.91345 23.0865C3.14071 23.3138 3.43026 23.4686 3.74548 23.5313C4.0607 23.594 4.38743 23.5618 4.68436 23.4388C4.98129 23.3158 5.23508 23.1075 5.41364 22.8403C5.5922 22.5731 5.6875 22.2589 5.6875 21.9375C5.68621 21.5069 5.5146 21.0943 5.21013 20.7899C4.90566 20.4854 4.49308 20.3138 4.0625 20.3125ZM13 20.3125C12.6786 20.3125 12.3644 20.4078 12.0972 20.5864C11.83 20.7649 11.6217 21.0187 11.4987 21.3156C11.3757 21.6126 11.3435 21.9393 11.4062 22.2545C11.4689 22.5697 11.6237 22.8593 11.851 23.0865C12.0782 23.3138 12.3678 23.4686 12.683 23.5313C12.9982 23.594 13.3249 23.5618 13.6219 23.4388C13.9188 23.3158 14.1726 23.1075 14.3511 22.8403C14.5297 22.5731 14.625 22.2589 14.625 21.9375C14.6237 21.5069 14.4521 21.0943 14.1476 20.7899C13.8432 20.4854 13.4306 20.3138 13 20.3125ZM21.9375 20.3125C21.6161 20.3125 21.3019 20.4078 21.0347 20.5864C20.7675 20.7649 20.5592 21.0187 20.4362 21.3156C20.3132 21.6126 20.281 21.9393 20.3437 22.2545C20.4064 22.5697 20.5612 22.8593 20.7885 23.0865C21.0157 23.3138 21.3053 23.4686 21.6205 23.5313C21.9357 23.594 22.2624 23.5618 22.5594 23.4388C22.8563 23.3158 23.1101 23.1075 23.2886 22.8403C23.4672 22.5731 23.5625 22.2589 23.5625 21.9375C23.5612 21.5069 23.3896 21.0943 23.0851 20.7899C22.7807 20.4854 22.3681 20.3138 21.9375 20.3125ZM22.75 18.6875H21.125V8.9375C21.1237 8.50692 20.9521 8.09434 20.6476 7.78987C20.3432 7.4854 19.9306 7.31379 19.5 7.3125H17.875V5.6875H19.5C20.3612 5.69007 21.1863 6.03331 21.7953 6.64224C22.4042 7.25118 22.7474 8.07634 22.75 8.9375V18.6875ZM12.1875 9.75H13.8125V18.6875H12.1875V9.75ZM4.875 18.6875H3.25V8.9375C3.25257 8.07634 3.59581 7.25118 4.20475 6.64224C4.81368 6.03331 5.63884 5.69007 6.5 5.6875H8.125V7.3125H6.5C6.06942 7.31379 5.65684 7.4854 5.35237 7.78987C5.0479 8.09434 4.87629 8.50692 4.875 8.9375V18.6875ZM13 1.625L11.9438 3.76512L9.58263 4.10637L11.2913 5.77362L10.8875 8.125L13 7.01512L15.1125 8.125L14.7087 5.77362L16.4174 4.10881L14.0563 3.76512L13 1.625Z" fill="#082947"/>
</svg>
