<svg width="5" height="20" viewBox="0 0 5 20" fill="none" xmlns="http://www.w3.org/2000/svg">
<path d="M1.54134 2.33333C1.54134 2.86261 1.9704 3.29167 2.49967 3.29167C3.02895 3.29167 3.45801 2.86261 3.45801 2.33333C3.45801 1.80406 3.02895 1.375 2.49967 1.375C1.9704 1.375 1.54134 1.80406 1.54134 2.33333Z" stroke="#435055" stroke-width="2"/>
<path d="M1.54134 10C1.54134 10.5293 1.9704 10.9583 2.49967 10.9583C3.02895 10.9583 3.45801 10.5293 3.45801 10C3.45801 9.47073 3.02895 9.04167 2.49967 9.04167C1.9704 9.04167 1.54134 9.47073 1.54134 10Z" stroke="#435055" stroke-width="2"/>
<path d="M1.54134 17.6667C1.54134 18.1959 1.9704 18.625 2.49967 18.625C3.02895 18.625 3.45801 18.1959 3.45801 17.6667C3.45801 17.1374 3.02895 16.7083 2.49967 16.7083C1.9704 16.7083 1.54134 17.1374 1.54134 17.6667Z" stroke="#435055" stroke-width="2"/>
</svg>
