<svg width="21" height="20" viewBox="0 0 21 20" fill="none" xmlns="http://www.w3.org/2000/svg">
<g clip-path="url(#clip0_380_3107)">
<path d="M16.5278 7.16108C16.4761 7.10901 16.4147 7.06768 16.347 7.03948C16.2793 7.01127 16.2066 6.99675 16.1333 6.99675C16.06 6.99675 15.9874 7.01127 15.9197 7.03948C15.852 7.06768 15.7905 7.10901 15.7389 7.16108C15.6354 7.26517 15.5773 7.40598 15.5773 7.55275C15.5773 7.69952 15.6354 7.84033 15.7389 7.94442L17.2444 9.44442H11.0555V3.25553L12.55 4.75553C12.6541 4.859 12.7949 4.91708 12.9416 4.91708C13.0884 4.91708 13.2292 4.859 13.3333 4.75553C13.3854 4.70388 13.4267 4.64244 13.4549 4.57474C13.4831 4.50704 13.4976 4.43442 13.4976 4.36108C13.4976 4.28774 13.4831 4.21513 13.4549 4.14743C13.4267 4.07973 13.3854 4.01829 13.3333 3.96664L10.5 1.11108L7.66108 3.9722C7.60959 4.02411 7.56886 4.08567 7.54121 4.15336C7.51356 4.22105 7.49955 4.29352 7.49997 4.36664C7.50043 4.47651 7.53346 4.58378 7.59489 4.67489C7.65631 4.76599 7.74337 4.83683 7.84506 4.87846C7.94674 4.92008 8.05848 4.93062 8.16616 4.90874C8.27383 4.88686 8.3726 4.83354 8.44997 4.75553L9.94442 3.25553V9.44442H3.75553L5.25553 7.94997C5.359 7.84588 5.41708 7.70508 5.41708 7.55831C5.41708 7.41154 5.359 7.27073 5.25553 7.16664C5.20388 7.11457 5.14244 7.07324 5.07474 7.04503C5.00704 7.01683 4.93442 7.00231 4.86108 7.00231C4.78774 7.00231 4.71513 7.01683 4.64743 7.04503C4.57973 7.07324 4.51829 7.11457 4.46664 7.16664L1.61108 9.99997L4.46664 12.8389C4.51855 12.8904 4.58012 12.9311 4.6478 12.9587C4.71549 12.9864 4.78797 13.0004 4.86108 13C4.97096 12.9995 5.07823 12.9665 5.16933 12.9051C5.26043 12.8436 5.33127 12.7566 5.3729 12.6549C5.41453 12.5532 5.42506 12.4415 5.40318 12.3338C5.3813 12.2261 5.32799 12.1273 5.24997 12.05L3.75553 10.5555H9.94442V16.7444L8.44997 15.2444C8.3726 15.1664 8.27383 15.1131 8.16616 15.0912C8.05848 15.0693 7.94674 15.0799 7.84506 15.1215C7.74337 15.1631 7.65631 15.234 7.59489 15.3251C7.53346 15.4162 7.50043 15.5234 7.49997 15.6333C7.49955 15.7064 7.51356 15.7789 7.54121 15.8466C7.56886 15.9143 7.60959 15.9758 7.66108 16.0278L10.5 18.8889L13.3389 16.0333C13.3909 15.9817 13.4323 15.9202 13.4605 15.8525C13.4887 15.7848 13.5032 15.7122 13.5032 15.6389C13.5032 15.5655 13.4887 15.4929 13.4605 15.4252C13.4323 15.3575 13.3909 15.2961 13.3389 15.2444C13.2348 15.1409 13.094 15.0829 12.9472 15.0829C12.8004 15.0829 12.6596 15.1409 12.5555 15.2444L11.0555 16.7444V10.5555H17.2444L15.7444 12.05C15.6664 12.1273 15.6131 12.2261 15.5912 12.3338C15.5693 12.4415 15.5799 12.5532 15.6215 12.6549C15.6631 12.7566 15.734 12.8436 15.8251 12.9051C15.9162 12.9665 16.0234 12.9995 16.1333 13C16.2064 13.0004 16.2789 12.9864 16.3466 12.9587C16.4143 12.9311 16.4758 12.8904 16.5278 12.8389L19.3889 9.99997L16.5278 7.16108Z" fill="white"/>
</g>
<defs>
<clipPath id="clip0_380_3107">
<rect width="20" height="20" fill="white" transform="translate(0.5)"/>
</clipPath>
</defs>
</svg>
