<svg width="19" height="20" viewBox="0 0 19 20" fill="none" xmlns="http://www.w3.org/2000/svg">
<path d="M17.684 3.6072L8.684 0.335205C8.38191 0.224769 8.05762 0.1889 7.73869 0.230644C7.41977 0.272388 7.11563 0.390512 6.85214 0.574977C6.58864 0.759443 6.37358 1.0048 6.22522 1.29018C6.07687 1.57557 5.9996 1.89256 6 2.2142V8.3432C5.39487 7.98266 4.70439 7.79036 4 7.7862C1.794 7.7862 0 9.5802 0 11.7862C0 13.9922 1.794 15.7862 4 15.7862C6.206 15.7862 8 13.9922 8 11.7862V2.2142L17 5.4862V12.3422C16.3946 11.9824 15.7042 11.7905 15 11.7862C12.794 11.7862 11 13.5802 11 15.7862C11 17.9922 12.794 19.7862 15 19.7862C17.206 19.7862 19 17.9922 19 15.7862V5.4862C19 4.6482 18.471 3.8922 17.684 3.6072ZM4 13.7862C2.897 13.7862 2 12.8892 2 11.7862C2 10.6832 2.897 9.7862 4 9.7862C5.103 9.7862 6 10.6832 6 11.7862C6 12.8892 5.103 13.7862 4 13.7862ZM15 17.7862C13.897 17.7862 13 16.8892 13 15.7862C13 14.6832 13.897 13.7862 15 13.7862C16.103 13.7862 17 14.6832 17 15.7862C17 16.8892 16.103 17.7862 15 17.7862Z" fill="#435055"/>
</svg>
