<svg width="24" height="18" viewBox="0 0 24 18" fill="none" xmlns="http://www.w3.org/2000/svg">
<path d="M0.5 0.906669C0.5 0.680742 0.589749 0.464068 0.749504 0.304313C0.909259 0.144559 1.12593 0.0548096 1.35186 0.0548096H20.0928C20.3187 0.0548096 20.5354 0.144559 20.6951 0.304313C20.8549 0.464068 20.9446 0.680742 20.9446 0.906669C20.9446 1.1326 20.8549 1.34927 20.6951 1.50902C20.5354 1.66878 20.3187 1.75853 20.0928 1.75853H1.35186C1.12593 1.75853 0.909259 1.66878 0.749504 1.50902C0.589749 1.34927 0.5 1.1326 0.5 0.906669ZM1.35186 8.5734H14.1297C14.3557 8.5734 14.5723 8.48365 14.7321 8.3239C14.8919 8.16414 14.9816 7.94814 14.9816 7.72222C14.9816 7.49629 15.1414 7.03011 14.9816 6.87036C14.5557 6.44443 14.3557 6.44443 14.1297 6.44443H1.77779C1.35186 6.44443 0.909259 6.55419 0.749504 6.71394C0.589749 6.8737 0.5 7.49562 0.5 7.72154C0.5 7.94747 0.589749 8.16414 0.749504 8.3239C0.909259 8.48365 1.12593 8.5734 1.35186 8.5734ZM9.01859 13.6846H1.35186C1.12593 13.6846 0.909259 13.7743 0.749504 13.9341C0.589749 14.0938 0.5 14.3105 0.5 14.5364C0.5 14.7623 0.589749 14.979 0.749504 15.1388C0.909259 15.2985 1.12593 15.3883 1.35186 15.3883H9.01859C9.24452 15.3883 9.46119 15.2985 9.62095 15.1388C9.7807 14.979 9.87045 14.7623 9.87045 14.5364C9.87045 14.3105 9.7807 14.0938 9.62095 13.9341C9.46119 13.7743 9.24452 13.6846 9.01859 13.6846ZM23.4683 7.54052C23.3994 7.75536 23.2501 7.93522 23.0516 8.04241C22.8531 8.1496 22.6208 8.1758 22.4034 8.11553L19.2409 7.16783V14.5364C19.2412 15.2866 18.9939 16.0159 18.5375 16.6111C18.081 17.2064 17.4409 17.6345 16.7164 17.8288C15.9918 18.0232 15.2234 17.9731 14.5303 17.6862C13.8372 17.3993 13.2581 16.8917 12.8829 16.2421C12.5077 15.5925 12.3573 14.8373 12.4551 14.0935C12.5529 13.3498 12.8934 12.6591 13.4238 12.1286C13.9542 11.5981 14.6448 11.2575 15.3885 11.1595C16.1323 11.0616 16.8875 11.2118 17.5372 11.5869V6.01782C17.538 5.88572 17.5691 5.75557 17.6282 5.63741C17.6873 5.51926 17.7727 5.41625 17.8779 5.33634C17.985 5.25712 18.1089 5.20346 18.2399 5.17946C18.3709 5.15547 18.5057 5.16178 18.634 5.19791L22.8932 6.4757C23.1081 6.54453 23.2879 6.69384 23.3951 6.89234C23.5023 7.09084 23.5285 7.32313 23.4683 7.54052ZM17.5372 14.5364C17.5372 14.1995 17.4373 13.8701 17.2501 13.5899C17.0628 13.3097 16.7968 13.0913 16.4855 12.9624C16.1741 12.8334 15.8316 12.7997 15.5011 12.8654C15.1706 12.9312 14.867 13.0934 14.6288 13.3317C14.3905 13.57 14.2282 13.8735 14.1625 14.204C14.0967 14.5345 14.1305 14.8771 14.2594 15.1884C14.3884 15.4997 14.6068 15.7658 14.8869 15.953C15.1671 16.1402 15.4965 16.2401 15.8335 16.2401C16.2853 16.2401 16.7187 16.0606 17.0382 15.7411C17.3577 15.4216 17.5372 14.9883 17.5372 14.5364Z" fill="current"/>
</svg>
