<svg width="20" height="20" viewBox="0 0 20 20" fill="none" xmlns="http://www.w3.org/2000/svg">
<path d="M9.43047 3.16406H10.5698C10.6711 3.16406 10.7217 3.2147 10.7217 3.31597V16.684C10.7217 16.7853 10.6711 16.8359 10.5698 16.8359H9.43047C9.3292 16.8359 9.27856 16.7853 9.27856 16.684V3.31597C9.27856 3.2147 9.3292 3.16406 9.43047 3.16406Z" fill="#FF5C00"/>
<path d="M3.61993 9.27844H16.3803C16.4816 9.27844 16.5323 9.32908 16.5323 9.43035V10.5697C16.5323 10.6709 16.4816 10.7216 16.3803 10.7216H3.61993C3.51865 10.7216 3.46802 10.6709 3.46802 10.5697V9.43035C3.46802 9.32908 3.51865 9.27844 3.61993 9.27844Z" fill="#FF5C00"/>
</svg>
