<svg width="26" height="28" viewBox="0 0 26 28" fill="none" xmlns="http://www.w3.org/2000/svg">
<path d="M13.0006 0.666504C11.9493 0.666504 10.9357 0.799456 9.96803 1.02458C9.76625 1.07167 9.58408 1.18029 9.44669 1.3354C9.30931 1.49051 9.22349 1.68447 9.20111 1.89046L8.98887 3.82536C8.91946 4.45941 8.55319 5.02041 8.00059 5.33968C7.44908 5.65832 6.77967 5.69362 6.1959 5.43734H6.1946L4.41725 4.65479C4.22768 4.57136 4.01687 4.54885 3.81396 4.59037C3.61104 4.63188 3.42602 4.73538 3.28444 4.88656C1.90278 6.35956 0.842373 8.14321 0.24017 10.134C0.180184 10.3321 0.183165 10.544 0.2487 10.7403C0.314236 10.9367 0.439096 11.1079 0.606055 11.2303L2.18288 12.3866C2.69778 12.7651 3.00059 13.3617 3.00059 13.9998C3.00059 14.6383 2.69779 15.2354 2.18288 15.6131L0.606055 16.7681C0.439096 16.8905 0.314236 17.0617 0.2487 17.258C0.183165 17.4544 0.180184 17.6663 0.24017 17.8644C0.842309 19.8549 1.90187 21.6399 3.28444 23.1131C3.42617 23.2641 3.61126 23.3673 3.81417 23.4086C4.01708 23.4499 4.22781 23.4272 4.41725 23.3436L6.1946 22.561C6.77865 22.3042 7.4487 22.3411 8.00059 22.66C8.55319 22.9793 8.91946 23.5403 8.98887 24.1743L9.20111 26.1092C9.22366 26.3148 9.3094 26.5083 9.44652 26.6632C9.58363 26.818 9.76538 26.9265 9.96673 26.9738C10.9348 27.1997 11.9493 27.3332 13.0006 27.3332C14.0519 27.3332 15.0655 27.2002 16.0331 26.9751C16.2349 26.928 16.4171 26.8194 16.5545 26.6643C16.6919 26.5092 16.7777 26.3152 16.8001 26.1092L17.0123 24.1743C17.0817 23.5403 17.448 22.9793 18.0006 22.66C18.5521 22.3414 19.2215 22.3048 19.8053 22.561L21.5839 23.3436C21.7734 23.4272 21.9841 23.4499 22.187 23.4086C22.3899 23.3673 22.575 23.2641 22.7167 23.1131C24.0984 21.6401 25.1588 19.8552 25.761 17.8644C25.821 17.6663 25.818 17.4544 25.7525 17.258C25.6869 17.0617 25.5621 16.8905 25.3951 16.7681L23.8183 15.6131C23.3034 15.2354 23.0006 14.6383 23.0006 13.9998C23.0006 13.3614 23.3034 12.7643 23.8183 12.3866L25.3951 11.2316C25.5621 11.1092 25.6869 10.938 25.7525 10.7416C25.818 10.5453 25.821 10.3334 25.761 10.1353C25.1588 8.14452 24.0984 6.35956 22.7167 4.88656C22.575 4.7356 22.3899 4.63235 22.187 4.59107C21.9841 4.54979 21.7734 4.5725 21.5839 4.65609L19.8053 5.43864C19.2215 5.69492 18.5521 5.65832 18.0006 5.33968C17.448 5.02041 17.0817 4.45941 17.0123 3.82536L16.8001 1.89046C16.7775 1.68487 16.6918 1.49133 16.5547 1.33649C16.4175 1.18166 16.2358 1.07314 16.0344 1.02588C15.0663 0.799941 14.0519 0.666504 13.0006 0.666504ZM13.0006 2.6665C13.6501 2.6665 14.2739 2.78309 14.899 2.89307L15.024 4.04281C15.1626 5.30875 15.8985 6.43473 17.0006 7.07145C18.1034 7.70859 19.446 7.78184 20.6113 7.26937L21.6686 6.80452C22.4804 7.77944 23.1232 8.88063 23.5722 10.0871L22.6347 10.7746C21.6083 11.5275 21.0006 12.7263 21.0006 13.9998C21.0006 15.2734 21.6083 16.4722 22.6347 17.2251L23.5722 17.9126C23.1232 19.119 22.4804 20.2202 21.6686 21.1952L20.6113 20.7303C19.446 20.2178 18.1034 20.2911 17.0006 20.9282C15.8985 21.5649 15.1626 22.6909 15.024 23.9569L14.899 25.1066C14.2739 25.2163 13.6498 25.3332 13.0006 25.3332C12.3511 25.3332 11.7273 25.2166 11.1021 25.1066L10.9771 23.9569C10.8386 22.6909 10.1026 21.5649 9.00059 20.9282C7.89781 20.2911 6.55519 20.2178 5.38991 20.7303L4.33262 21.1952C3.52057 20.2204 2.87788 19.1191 2.42897 17.9126L3.36647 17.2251C4.39289 16.4722 5.00059 15.2734 5.00059 13.9998C5.00059 12.7263 4.3924 11.5267 3.36647 10.7733L2.42897 10.0858C2.87814 8.87886 3.52155 7.7784 4.33392 6.80322L5.38991 7.26807C6.55519 7.78054 7.89781 7.70859 9.00059 7.07145C10.1026 6.43473 10.8386 5.30875 10.9771 4.04281L11.1021 2.89307C11.7273 2.7834 12.3514 2.6665 13.0006 2.6665ZM13.0006 8.6665C10.0669 8.6665 7.66725 11.0662 7.66725 13.9998C7.66725 16.9335 10.0669 19.3332 13.0006 19.3332C15.9343 19.3332 18.3339 16.9335 18.3339 13.9998C18.3339 11.0662 15.9343 8.6665 13.0006 8.6665ZM13.0006 10.6665C14.8534 10.6665 16.3339 12.147 16.3339 13.9998C16.3339 15.8526 14.8534 17.3332 13.0006 17.3332C11.1478 17.3332 9.66725 15.8526 9.66725 13.9998C9.66725 12.147 11.1478 10.6665 13.0006 10.6665Z" fill="#082947"/>
</svg>
