<svg width="26" height="27" viewBox="0 0 26 27" fill="none" xmlns="http://www.w3.org/2000/svg">
<path d="M13 1C10.8 1 9 2.8 9 5C9 6.113 9.477 7.117 10.219 7.844C9.53832 8.30333 8.9803 8.92214 8.59353 9.64651C8.20677 10.3709 8.00301 11.1788 8 12V16.625L10 17.625V22H16V17.625L18 16.625V12C17.997 11.1788 17.7932 10.3709 17.4065 9.64651C17.0197 8.92214 16.4617 8.30333 15.781 7.844C16.523 7.117 17 6.114 17 5C17 2.8 15.2 1 13 1ZM13 2.36963C14.117 2.36963 15.5 3.883 15.5 5C15.5 6.117 14.117 7 13 7C11.883 7 10.5 6.117 10.5 5C10.5 3.36963 11.883 2.36963 13 2.36963ZM13 8.36963C14.668 8.36963 16.5 10.332 16.5 12V15.3696L14.5 16.625V20.3696H11.5V16.3696L9.5 15.3696V12C9.5 10.332 11.332 8.36963 13 8.36963ZM6 15.875C3.082 16.691 1 18.075 1 20C1 23.281 7.035 25 13 25C18.965 25 25 23.281 25 20C25 18.074 22.918 16.691 20 15.875V17.8696C21.902 18.4826 23.5 19.2446 23.5 19.8696C23.5 21.0646 19.012 23.3696 13 23.3696C6.988 23.3696 2.73661 21.195 2.73661 20C2.73661 19.375 4.098 18.4826 6 17.8696V15.875Z" fill="#082947"/>
</svg>
