<svg width="26" height="26" viewBox="0 0 26 26" fill="none" xmlns="http://www.w3.org/2000/svg">
<path d="M6.49973 8.66665C6.88005 8.66664 7.25367 8.56652 7.58303 8.37635C7.9124 8.18619 8.1859 7.91268 8.37606 7.58331H15.1664C15.741 7.58331 16.2921 7.81159 16.6985 8.21791C17.1048 8.62424 17.3331 9.17534 17.3331 9.74998C17.3331 10.3246 17.1048 10.8757 16.6985 11.282C16.2921 11.6884 15.741 11.9166 15.1664 11.9166H10.8331C9.68379 11.9166 8.58159 12.3732 7.76893 13.1858C6.95628 13.9985 6.49973 15.1007 6.49973 16.25C6.49973 17.3993 6.95628 18.5014 7.76893 19.3141C8.58159 20.1268 9.68379 20.5833 10.8331 20.5833H17.6234C17.8619 20.9963 18.23 21.3191 18.6706 21.5016C19.1113 21.6842 19.5998 21.7162 20.0605 21.5927C20.5212 21.4693 20.9283 21.1973 21.2186 20.8189C21.509 20.4405 21.6664 19.9769 21.6664 19.5C21.6664 19.023 21.509 18.5594 21.2186 18.1811C20.9283 17.8027 20.5212 17.5307 20.0605 17.4072C19.5998 17.2838 19.1113 17.3158 18.6706 17.4983C18.23 17.6808 17.8619 18.0036 17.6234 18.4166H10.8331C10.2584 18.4166 9.70733 18.1884 9.301 17.782C8.89467 17.3757 8.6664 16.8246 8.6664 16.25C8.6664 15.6753 8.89467 15.1242 9.301 14.7179C9.70733 14.3116 10.2584 14.0833 10.8331 14.0833H15.1664C16.3157 14.0833 17.4179 13.6268 18.2305 12.8141C19.0432 12.0015 19.4997 10.8993 19.4997 9.74998C19.4997 8.60071 19.0432 7.49851 18.2305 6.68585C17.4179 5.87319 16.3157 5.41665 15.1664 5.41665H8.37606C8.1859 5.08727 7.91238 4.81375 7.583 4.62359C7.25362 4.43342 6.87999 4.33331 6.49966 4.33331C6.11933 4.33332 5.7457 4.43343 5.41632 4.6236C5.08695 4.81377 4.81343 5.08729 4.62327 5.41667C4.43311 5.74605 4.333 6.11968 4.33301 6.50001C4.33301 6.88035 4.43313 7.25398 4.62331 7.58335C4.81348 7.91272 5.087 8.18623 5.41638 8.37639C5.74576 8.56655 6.1194 8.66666 6.49973 8.66665Z" fill="#082947"/>
</svg>
