<svg width="22" height="22" viewBox="0 0 22 22" fill="none" xmlns="http://www.w3.org/2000/svg">
<path d="M6 11L10.2857 14.5714L16 7.42857M11 21C9.68678 21 8.38642 20.7413 7.17317 20.2388C5.95991 19.7362 4.85752 18.9997 3.92893 18.0711C3.00035 17.1425 2.26375 16.0401 1.7612 14.8268C1.25866 13.6136 1 12.3132 1 11C1 9.68678 1.25866 8.38642 1.7612 7.17317C2.26375 5.95991 3.00035 4.85752 3.92893 3.92893C4.85752 3.00035 5.95991 2.26375 7.17317 1.7612C8.38642 1.25866 9.68678 1 11 1C13.6522 1 16.1957 2.05357 18.0711 3.92893C19.9464 5.8043 21 8.34784 21 11C21 13.6522 19.9464 16.1957 18.0711 18.0711C16.1957 19.9464 13.6522 21 11 21Z" stroke="white"/>
</svg>
