<svg width="12" height="12" viewBox="0 0 12 12" fill="none" xmlns="http://www.w3.org/2000/svg">
<path d="M6.71838 0.123901H5.78088C5.69755 0.123901 5.65588 0.165568 5.65588 0.248901V5.15515H1C0.916667 5.15515 0.875 5.19682 0.875 5.28015V6.21765C0.875 6.30099 0.916667 6.34265 1 6.34265H5.65588V11.2489C5.65588 11.3322 5.69755 11.3739 5.78088 11.3739H6.71838C6.80172 11.3739 6.84338 11.3322 6.84338 11.2489V6.34265H11.5C11.5833 6.34265 11.625 6.30099 11.625 6.21765V5.28015C11.625 5.19682 11.5833 5.15515 11.5 5.15515H6.84338V0.248901C6.84338 0.165568 6.80172 0.123901 6.71838 0.123901Z" fill="#178BBD"/>
</svg>
