<svg width="21" height="20" viewBox="0 0 21 20" fill="none" xmlns="http://www.w3.org/2000/svg">
<path d="M17.2676 14.9141C16.8992 14.0414 16.3645 13.2486 15.6934 12.5801C15.0243 11.9096 14.2317 11.375 13.3594 11.0059C13.3516 11.002 13.3438 11 13.336 10.9961C14.5528 10.1172 15.3438 8.68555 15.3438 7.07031C15.3438 4.39453 13.1758 2.22656 10.5 2.22656C7.82427 2.22656 5.6563 4.39453 5.6563 7.07031C5.6563 8.68555 6.44731 10.1172 7.66411 10.998C7.6563 11.002 7.64849 11.0039 7.64067 11.0078C6.76567 11.377 5.98052 11.9062 5.30669 12.582C4.6362 13.2511 4.10162 14.0437 3.73247 14.916C3.36982 15.77 3.17423 16.6856 3.1563 17.6133C3.15578 17.6341 3.15943 17.6549 3.16705 17.6743C3.17467 17.6937 3.1861 17.7114 3.20066 17.7263C3.21522 17.7412 3.23262 17.7531 3.25184 17.7612C3.27105 17.7693 3.2917 17.7734 3.31255 17.7734H4.48442C4.57036 17.7734 4.63872 17.7051 4.64067 17.6211C4.67974 16.1133 5.2852 14.7012 6.35552 13.6309C7.46294 12.5234 8.93364 11.9141 10.5 11.9141C12.0665 11.9141 13.5372 12.5234 14.6446 13.6309C15.7149 14.7012 16.3204 16.1133 16.3594 17.6211C16.3614 17.707 16.4297 17.7734 16.5157 17.7734H17.6875C17.7084 17.7734 17.729 17.7693 17.7483 17.7612C17.7675 17.7531 17.7849 17.7412 17.7994 17.7263C17.814 17.7114 17.8254 17.6937 17.833 17.6743C17.8407 17.6549 17.8443 17.6341 17.8438 17.6133C17.8243 16.6797 17.6309 15.7715 17.2676 14.9141ZM10.5 10.4297C9.60356 10.4297 8.75981 10.0801 8.12505 9.44531C7.49028 8.81055 7.14067 7.9668 7.14067 7.07031C7.14067 6.17383 7.49028 5.33008 8.12505 4.69531C8.75981 4.06055 9.60356 3.71094 10.5 3.71094C11.3965 3.71094 12.2403 4.06055 12.875 4.69531C13.5098 5.33008 13.8594 6.17383 13.8594 7.07031C13.8594 7.9668 13.5098 8.81055 12.875 9.44531C12.2403 10.0801 11.3965 10.4297 10.5 10.4297Z" fill="#435055"/>
</svg>
