<svg width="21" height="21" viewBox="0 0 24 26" fill="none" xmlns="http://www.w3.org/2000/svg">
<path d="M22.8281 20.8625C22.2386 19.4662 21.3831 18.1978 20.3093 17.1281C19.2388 16.0553 17.9707 15.2 16.575 14.6094C16.5625 14.6031 16.55 14.6 16.5375 14.5938C18.4843 13.1875 19.75 10.8969 19.75 8.3125C19.75 4.03125 16.2812 0.5625 12 0.5625C7.71871 0.5625 4.24996 4.03125 4.24996 8.3125C4.24996 10.8969 5.51558 13.1875 7.46246 14.5969C7.44996 14.6031 7.43746 14.6062 7.42496 14.6125C6.02496 15.2031 4.76871 16.05 3.69058 17.1313C2.6178 18.2018 1.76247 19.4699 1.17183 20.8656C0.591588 22.232 0.27865 23.697 0.249956 25.1812C0.249122 25.2146 0.254972 25.2478 0.267162 25.2788C0.279351 25.3099 0.297634 25.3382 0.320932 25.3621C0.344231 25.386 0.372073 25.4049 0.402819 25.4179C0.433565 25.4308 0.466593 25.4375 0.499956 25.4375H2.37496C2.51246 25.4375 2.62183 25.3281 2.62496 25.1938C2.68746 22.7812 3.65621 20.5219 5.36871 18.8094C7.14058 17.0375 9.49371 16.0625 12 16.0625C14.5062 16.0625 16.8593 17.0375 18.6312 18.8094C20.3437 20.5219 21.3125 22.7812 21.375 25.1938C21.3781 25.3313 21.4875 25.4375 21.625 25.4375H23.5C23.5333 25.4375 23.5663 25.4308 23.5971 25.4179C23.6278 25.4049 23.6557 25.386 23.679 25.3621C23.7023 25.3382 23.7206 25.3099 23.7327 25.2788C23.7449 25.2478 23.7508 25.2146 23.75 25.1812C23.7187 23.6875 23.4093 22.2344 22.8281 20.8625ZM12 13.6875C10.5656 13.6875 9.21558 13.1281 8.19996 12.1125C7.18433 11.0969 6.62496 9.74687 6.62496 8.3125C6.62496 6.87813 7.18433 5.52812 8.19996 4.5125C9.21558 3.49687 10.5656 2.9375 12 2.9375C13.4343 2.9375 14.7843 3.49687 15.8 4.5125C16.8156 5.52812 17.375 6.87813 17.375 8.3125C17.375 9.74687 16.8156 11.0969 15.8 12.1125C14.7843 13.1281 13.4343 13.6875 12 13.6875Z" fill="current"/>
</svg>
