<svg width="22" height="14" viewBox="0 0 22 14" fill="none" xmlns="http://www.w3.org/2000/svg">
<path d="M19.9941 2.15C19.6903 2.0132 19.353 1.9687 19.0241 2.02204C18.6952 2.07537 18.3892 2.22419 18.1441 2.45L15.9941 4.45V3C15.9941 2.20435 15.6781 1.44129 15.1155 0.87868C14.5529 0.316071 13.7898 0 12.9941 0H3.99414C3.19849 0 2.43543 0.316071 1.87282 0.87868C1.31021 1.44129 0.994141 2.20435 0.994141 3V11C0.994141 11.7956 1.31021 12.5587 1.87282 13.1213C2.43543 13.6839 3.19849 14 3.99414 14H12.9941C13.7898 14 14.5529 13.6839 15.1155 13.1213C15.6781 12.5587 15.9941 11.7956 15.9941 11V9.55L18.1541 11.55C18.4721 11.8378 18.8852 11.9981 19.3141 12C19.5522 11.9994 19.7874 11.9483 20.0041 11.85C20.2991 11.7307 20.5518 11.5262 20.7299 11.2625C20.908 10.9989 21.0035 10.6882 21.0041 10.37V3.63C21.0027 3.31069 20.9057 2.99911 20.7257 2.73536C20.5457 2.47161 20.291 2.26774 19.9941 2.15ZM13.9941 11C13.9941 11.2652 13.8888 11.5196 13.7012 11.7071C13.5137 11.8946 13.2594 12 12.9941 12H3.99414C3.72892 12 3.47457 11.8946 3.28703 11.7071C3.0995 11.5196 2.99414 11.2652 2.99414 11V3C2.99414 2.73478 3.0995 2.48043 3.28703 2.29289C3.47457 2.10536 3.72892 2 3.99414 2H12.9941C13.2594 2 13.5137 2.10536 13.7012 2.29289C13.8888 2.48043 13.9941 2.73478 13.9941 3V11ZM18.9941 9.6L16.1841 7L18.9941 4.4V9.6Z" fill="#435055"/>
</svg>
